<svg id="instagram" xmlns="http://www.w3.org/2000/svg" width="27" height="27.005" viewBox="0 0 27 27.005">
  <path id="Path_1" data-name="Path 1" d="M27.38,7.94a9.868,9.868,0,0,0-.628-3.276A6.918,6.918,0,0,0,22.8.712,9.893,9.893,0,0,0,19.525.085C18.079.016,17.62,0,13.954,0S9.828.016,8.388.079A9.871,9.871,0,0,0,5.112.707a6.589,6.589,0,0,0-2.4,1.562,6.649,6.649,0,0,0-1.556,2.39A9.894,9.894,0,0,0,.533,7.934C.464,9.38.449,9.839.449,13.505s.016,4.125.079,5.566a9.867,9.867,0,0,0,.628,3.276A6.917,6.917,0,0,0,5.107,26.3a9.9,9.9,0,0,0,3.276.628c1.44.063,1.9.079,5.566.079s4.125-.016,5.566-.079A9.865,9.865,0,0,0,22.79,26.3a6.907,6.907,0,0,0,3.951-3.951,9.9,9.9,0,0,0,.628-3.276c.063-1.44.079-1.9.079-5.566S27.443,9.38,27.38,7.94ZM24.948,18.965a7.4,7.4,0,0,1-.464,2.506,4.48,4.48,0,0,1-2.564,2.564,7.428,7.428,0,0,1-2.506.464c-1.424.063-1.852.079-5.455.079S9.923,24.563,8.5,24.5A7.4,7.4,0,0,1,6,24.035a4.155,4.155,0,0,1-1.551-1.008A4.2,4.2,0,0,1,3.44,21.477a7.429,7.429,0,0,1-.464-2.506c-.063-1.424-.079-1.852-.079-5.455s.016-4.036.079-5.455A7.4,7.4,0,0,1,3.44,5.555,4.1,4.1,0,0,1,4.453,4,4.192,4.192,0,0,1,6,3,7.433,7.433,0,0,1,8.51,2.532c1.424-.063,1.852-.079,5.455-.079s4.036.016,5.455.079A7.4,7.4,0,0,1,21.925,3,4.152,4.152,0,0,1,23.476,4a4.2,4.2,0,0,1,1.008,1.551,7.432,7.432,0,0,1,.464,2.506c.063,1.424.079,1.852.079,5.455s-.016,4.025-.079,5.45Zm0,0" transform="translate(-0.449 0)"/>
  <path id="Path_2" data-name="Path 2" d="M131.886,124.5a6.937,6.937,0,1,0,6.937,6.937A6.939,6.939,0,0,0,131.886,124.5Zm0,11.437a4.5,4.5,0,1,1,4.5-4.5A4.5,4.5,0,0,1,131.886,135.937Zm0,0" transform="translate(-118.381 -117.932)"/>
  <path id="Path_3" data-name="Path 3" d="M365.689,90.221a1.62,1.62,0,1,1-1.62-1.62A1.62,1.62,0,0,1,365.689,90.221Zm0,0" transform="translate(-343.352 -83.928)"/>
</svg>
