<svg xmlns="http://www.w3.org/2000/svg" width="27.846" height="27.98" viewBox="0 0 27.846 27.98">
  <path id="whatsapp" d="M24.039,4.066A13.868,13.868,0,0,0,2.217,20.8L.25,27.98,7.6,26.052a13.85,13.85,0,0,0,6.626,1.688h.006A13.871,13.871,0,0,0,24.039,4.066ZM14.231,25.4h0a11.51,11.51,0,0,1-5.865-1.606l-.421-.25L3.579,24.686l1.164-4.253L4.469,20a11.524,11.524,0,1,1,9.762,5.4Zm6.321-8.631c-.346-.174-2.05-1.011-2.367-1.127s-.549-.173-.779.174-.895,1.127-1.1,1.358-.4.26-.751.087a9.462,9.462,0,0,1-2.786-1.72,10.45,10.45,0,0,1-1.927-2.4c-.2-.347,0-.516.152-.707a9.8,9.8,0,0,0,.866-1.185.637.637,0,0,0-.029-.607c-.086-.173-.779-1.879-1.068-2.572-.281-.675-.567-.584-.78-.595s-.433-.012-.664-.012a1.272,1.272,0,0,0-.924.434,3.886,3.886,0,0,0-1.212,2.89A6.739,6.739,0,0,0,8.6,14.369,15.442,15.442,0,0,0,14.519,19.6a19.83,19.83,0,0,0,1.975.73,4.749,4.749,0,0,0,2.182.137,3.569,3.569,0,0,0,2.338-1.647,2.9,2.9,0,0,0,.2-1.648c-.086-.144-.317-.231-.664-.4Zm0,0" transform="translate(-0.25)" fill-rule="evenodd"/>
</svg>
