<svg xmlns="http://www.w3.org/2000/svg" width="309" height="368" viewBox="0 0 309 368">
  <g id="humaaans_sitting-1" data-name="humaaans/sitting-1" transform="translate(-18 -17)">
    <g id="A-Human_Sitting" data-name="A-Human/Sitting" transform="translate(340 24) rotate(180)">
      <g id="Head_Front_Airy" data-name="Head/Front/Airy" transform="translate(82)">
        <g id="Head" transform="translate(54 -31)">
          <path id="Path_237" data-name="Path 237" d="M8.262-34.49C3.654-29.081.536-22.453,1.057-15.026c1.5,21.4,31.292,16.693,37.087,5.892s5.106-38.2-2.383-40.13c-2.987-.77-9.349,1.116-15.825,5.019L24-73H0Z" fill="#b28b67" fill-rule="evenodd"/>
        </g>
        <path id="hair" d="M78.464-27.685c-3.163.519-11.68.875-13.251.875-1,0-2.092-.229-2.686.692-.487.755-.308,2.031-.454,2.907-.169,1.017-.408,2.022-.651,3.023a30.745,30.745,0,0,1-3.192,8.109,24.924,24.924,0,0,1-11.814,10.7A37.937,37.937,0,0,1,28.48,1.084C22.043.562,16.216-1.563,10.138-3.562A38.442,38.442,0,0,0-7.778-5.288c-6.1.938-10.715,4.246-15.863,7.385-5.27,3.214-11.293,5.317-17.523,4.833C-46.98,6.48-52.341,4.078-57.15.871c-4.5-3-8.212-6.612-10.308-11.695-2.255-5.467-2.253-11.468,1.455-16.3,5.375-7,15.353-8.814,23.654-8.634A45.191,45.191,0,0,1-28.3-33.183c6.045,2.126,11.27,5.731,16.926,8.655A44.044,44.044,0,0,0-3.1-21.217c2.791.788,5.539,1.149,8.066-.536A38.09,38.09,0,0,1,13.092-26.4a26.207,26.207,0,0,1,9.166-1.646c6.081.047,12.075,1.942,17.98,3.211,4.816,1.035,9.969,2.066,14.879,1.071,2.049-.415,5.041-1.272,5.781-3.4C48.444-29.427,43.553-44.83,47.064-56.137c1.9-6.1,13.286-13.237,17.715-10.029,2.806,2.033,1.1,4.7,0,6.463C62.668-56.33,61.945-52,65.852-49.648c3.37,2.026,6.913-2.785,6.98-2.779.926.073,8.929,4.6,14.443,11.2,5.439-.323,6.264,3.264,4.966,6.2S82.834-28.4,78.464-27.685Z" fill="#191847" fill-rule="evenodd"/>
      </g>
      <g id="Bottom_Sitting_Sweat-Pants" data-name="Bottom/Sitting/Sweat-Pants" transform="translate(0 -187)">
        <g id="Objects_Seat_Ball" data-name="Objects/Seat/Ball" transform="translate(10 -42)">
          <ellipse id="Ballsy-Ball" cx="77" cy="73.5" rx="77" ry="73.5" transform="translate(39 -132)" fill="#c5cfd6"/>
        </g>
        <path id="Skin" d="M271.509-162.66c-12.813,28.358-22.079,53.052-25.8,66.08-6.368,22.308-11.213,41.937-12.438,49.267-2.92,17.481,22.462,18.5,25.817,9.811,5.078-13.149,13.943-56.351,24.6-121.605Zm-148.621,89c11.756,4.647,52.924,19.189,72.779,23.3,5.706,1.182,11.236,2.28,16.435,3.273,15.454,2.95,23.461-24.929,8.577-27.071C183.612-79.494,131.063-85,126.566-85.621,120.263-86.488,115.5-76.584,122.888-73.663Z" fill="#b28b67" fill-rule="evenodd"/>
        <path id="Leg-Back" d="M221.587-39.416,158-7.047V0h7.562q92.277-23.514,94.307-30.138c.014-.048.028-.1.04-.143.031-.041.061-.082.091-.123,12.191-16.767,19.493-98.624,21.889-104.753l-23.361-3.485C249.591-105.5,221-82.418,221.759-42.729A13.029,13.029,0,0,0,221.587-39.416Z" fill="#1f28cf" fill-rule="evenodd"/>
        <path id="Leg-Front" d="M163.283-58.64c-5.818,1.165-11.176,2.2-15.76,3.008C117.909-50.438,109.274-34.586,114.38,0h54.562c8.913-2.56,55.232-21.985,79.265-32.316,15.906-6.838,10.892-31.488,1.884-37.9a.88.88,0,0,0-.5-.781C201.137-91.083,162.8-80.545,150-83.912l-5.923,18.684Z" fill="#2b44ff" fill-rule="evenodd"/>
        <g id="Accessories_Shoe_Flat-Sneaker" data-name="Accessories/Shoe/Flat-Sneaker" transform="matrix(0.438, -0.899, 0.899, 0.438, 148.565, -57.151)">
          <path id="shoe" d="M2.678-25.4A21.472,21.472,0,0,1,1-32.106,50.176,50.176,0,0,1,1.9-40H58.3q2.2,7.268-2.538,7.848t-7.87,1.046L21.68-19.419a1,1,0,0,1-1.32-.506l-.011-.026-1.685-4.088a17.983,17.983,0,0,0-7.126-2.046,16.139,16.139,0,0,0-6.152,1.8h0a2,2,0,0,1-2.652-.985Q2.7-25.335,2.678-25.4Z" fill="#e4e4e4" fill-rule="evenodd"/>
        </g>
        <g id="Accessories_Shoe_Flat-Sneaker-2" data-name="Accessories/Shoe/Flat-Sneaker" transform="translate(263 -132)">
          <path id="shoe-2" data-name="shoe" d="M2.678-25.4A21.472,21.472,0,0,1,1-32.106,50.177,50.177,0,0,1,1.9-40H58.3q2.2,7.268-2.538,7.848T47.9-31.106L21.68-19.419a1,1,0,0,1-1.32-.506l-.011-.026-1.685-4.088a17.983,17.983,0,0,0-7.127-2.046,16.139,16.139,0,0,0-6.152,1.8h0a2,2,0,0,1-2.652-.985Q2.7-25.335,2.678-25.4Z" fill="#e4e4e4" fill-rule="evenodd"/>
        </g>
      </g>
      <g id="Body_Jacket-2" data-name="Body/Jacket-2" transform="translate(22 -82)">
        <path id="Skin-2" data-name="Skin" d="M198-77.617,234.235-61.7a85.831,85.831,0,0,0,18.388,14.422c1.767.563,4.787.733,1.565-3.973s-6.4-9.8-5.112-11.45,5.017.171,6.49-2.511q1.475-2.682-18.859-6.417L209.57-92.439ZM51.508-82,72-86.066Q41.088-143.674,38.845-147.13c-3.365-5.185-.225-14.687.934-19.691-7.275-1.694-4.406,9.256-13.612,6.97-8.4-2.087-15.528-7.442-23.363-.22-.963.888-1.669,3.664,1.616,5.087,8.183,3.547,20.272,10.188,22.232,12.766Q30.662-136.944,51.508-82Z" fill="#b28b67" fill-rule="evenodd"/>
        <path id="Coat-Back" d="M123.279-9.877l8.485,2.231C152.119-24.2,163.6-67.261,176.612-71.955c12.3-4.438,28.6,2.324,47.89,11.217l7.293-13.1c-16.386-21.165-53.5-41.082-69.953-33C135.533-93.926,125.046-40.5,123.279-9.877Z" transform="translate(5.745 15.252) rotate(-5)" fill="#db2721" fill-rule="evenodd"/>
        <path id="Shirt" d="M90-114h76.511c3.5,0,2.838,5.048,2.332,7.6-5.832,29.4-28.6,61.092-28.6,102.943L118.172,0C99.918-29.358,93.6-65.5,90-114Z" fill="#dde3e9" fill-rule="evenodd"/>
        <path id="Coat-Front" d="M82.369-84.233q-23.4-42.2-39.331-60.767L27-141.859Q42.5-45.757,116.748,0h8.738q29.719-101.305,16.386-135H73C74.09-118.563,77.583-101.181,82.369-84.233Z" fill="#ff4133" fill-rule="evenodd"/>
      </g>
    </g>
  </g>
</svg>
