<svg xmlns="http://www.w3.org/2000/svg" width="276.424" height="433" viewBox="0 0 276.424 433">
  <g id="humaaans_standing-9" data-name="humaaans/standing-9" transform="translate(-53 -20)">
    <g id="A-Human_Standing" data-name="A-Human/Standing" transform="translate(40 27)">
      <g id="Head_Front_Airy" data-name="Head/Front/Airy" transform="translate(82)">
        <g id="Head" transform="translate(54 31)">
          <path id="Path_238" data-name="Path 238" d="M8.262,34.49C3.654,29.081.536,22.453,1.057,15.026c1.5-21.4,31.292-16.693,37.087-5.892s5.106,38.2-2.383,40.13c-2.987.77-9.349-1.116-15.825-5.019L24,73H0Z" fill="#b28b67" fill-rule="evenodd"/>
        </g>
        <path id="hair" d="M78.464,27.685c-3.163-.519-11.68-.875-13.251-.875-1,0-2.092.229-2.686-.692-.487-.755-.308-2.031-.454-2.907-.169-1.017-.408-2.022-.651-3.023a30.745,30.745,0,0,0-3.192-8.109,24.924,24.924,0,0,0-11.814-10.7A37.937,37.937,0,0,0,28.48-1.084c-6.437.522-12.265,2.647-18.342,4.647A38.442,38.442,0,0,1-7.778,5.288c-6.1-.938-10.715-4.246-15.863-7.385-5.27-3.214-11.293-5.317-17.523-4.833C-46.98-6.48-52.341-4.078-57.15-.871c-4.5,3-8.212,6.612-10.308,11.695-2.255,5.467-2.253,11.468,1.455,16.3,5.375,7,15.353,8.814,23.654,8.634A45.191,45.191,0,0,0-28.3,33.183c6.045-2.126,11.27-5.731,16.926-8.655A44.044,44.044,0,0,1-3.1,21.217c2.791-.788,5.539-1.149,8.066.536A38.09,38.09,0,0,0,13.092,26.4a26.207,26.207,0,0,0,9.166,1.646c6.081-.047,12.075-1.942,17.98-3.211,4.816-1.035,9.969-2.066,14.879-1.071,2.049.415,5.041,1.272,5.781,3.4C48.444,29.427,43.553,44.83,47.064,56.137c1.9,6.1,13.286,13.237,17.715,10.029,2.806-2.033,1.1-4.7,0-6.463C62.668,56.33,61.945,52,65.852,49.648c3.37-2.026,6.913,2.785,6.98,2.779.926-.073,8.929-4.6,14.443-11.2,5.439.323,6.264-3.264,4.966-6.2S82.834,28.4,78.464,27.685Z" fill="#191847" fill-rule="evenodd"/>
      </g>
      <g id="Bottom_Standing_Sprint" data-name="Bottom/Standing/Sprint" transform="translate(0 187)">
        <path id="Leg" d="M207.47-9.658c-19.125,15.593-11.85,152.3-13.126,154.023q-.852,1.147-90.925,19.528l2.592,10.581q105.363-5.229,111.5-13.05,8.793-11.2,21.733-125.242Z" transform="matrix(0.574, -0.819, 0.819, 0.574, 5.556, 175.489)" fill="#b28b67" fill-rule="evenodd"/>
        <path id="Pant" d="M113.54,152.758l4.566,17.041c52.36,6.013,86.877-1.429,99.027-12.987q12.15-11.558,21.789-124.9l-34-48.55C159.4,17.706,186.537,130.14,185.374,132.713S156.6,137.32,113.54,152.758Z" transform="matrix(0.574, -0.819, 0.819, 0.574, 11.545, 177.47)" fill="#2f3676" fill-rule="evenodd"/>
        <g id="Accessories_Shoe_Flat-Sneaker" data-name="Accessories/Shoe/Flat-Sneaker" transform="matrix(0.94, 0.342, -0.342, 0.94, 201.564, 158.054)">
          <path id="shoe" d="M2.678,25.4A21.472,21.472,0,0,0,1,32.106,50.177,50.177,0,0,0,1.9,40H58.3q2.2-7.268-2.538-7.848T47.9,31.106L21.68,19.419a1,1,0,0,0-1.32.506l-.011.026-1.685,4.088a17.983,17.983,0,0,1-7.127,2.046,16.139,16.139,0,0,1-6.152-1.8h0a2,2,0,0,0-2.652.985Q2.7,25.335,2.678,25.4Z" fill="#e4e4e4" fill-rule="evenodd"/>
        </g>
        <path id="Leg-2" data-name="Leg" d="M130,0,78.254,124.227,27.4,229.25h12L170.674,0Z" fill="#997659" fill-rule="evenodd"/>
        <g id="Accessories_Shoe_Flat-Sneaker-2" data-name="Accessories/Shoe/Flat-Sneaker" transform="translate(24 199)">
          <path id="shoe-2" data-name="shoe" d="M2.678,25.4A21.472,21.472,0,0,0,1,32.106,50.177,50.177,0,0,0,1.9,40H58.3q2.2-7.268-2.538-7.848T47.9,31.106L21.68,19.419a1,1,0,0,0-1.32.506l-.011.026-1.685,4.088a17.983,17.983,0,0,1-7.127,2.046,16.139,16.139,0,0,1-6.152-1.8h0a2,2,0,0,0-2.652.985Q2.7,25.335,2.678,25.4Z" fill="#e4e4e4" fill-rule="evenodd"/>
        </g>
        <path id="Pant-2" data-name="Pant" d="M31.989,207.433l26.662,5C79.266,182.125,165.541,57.852,175,0H115.644C84.055,41.821,51.639,176.624,31.989,207.433Z" fill="#5c63ab" fill-rule="evenodd"/>
      </g>
      <g id="Body_Jacket-2" data-name="Body/Jacket-2" transform="translate(22 82)">
        <path id="Skin" d="M198,77.617,234.235,61.7a85.831,85.831,0,0,1,18.388-14.422c1.767-.563,4.787-.733,1.565,3.973s-6.4,9.8-5.112,11.45,5.017-.171,6.49,2.511q1.475,2.682-18.859,6.417L209.57,92.439ZM51.508,82,72,86.066Q41.088,143.674,38.845,147.13c-3.365,5.185-.225,14.687.934,19.691-7.275,1.694-4.406-9.256-13.612-6.97-8.4,2.087-15.528,7.442-23.363.22-.963-.888-1.669-3.664,1.616-5.087,8.183-3.547,20.272-10.188,22.232-12.766Q30.662,136.944,51.508,82Z" fill="#b28b67" fill-rule="evenodd"/>
        <path id="Coat-Back" d="M123.28,9.877l8.485-2.231c20.355,16.559,31.837,59.616,44.848,64.31,12.3,4.438,28.6-2.324,47.89-11.217l7.293,13.1c-16.386,21.165-53.5,41.082-69.953,33C135.534,93.927,125.047,40.5,123.28,9.877Z" transform="translate(5.745 -15.252) rotate(5)" fill="#db2721" fill-rule="evenodd"/>
        <path id="Shirt" d="M90,114h76.511c3.5,0,2.838-5.048,2.332-7.6-5.832-29.4-28.6-61.092-28.6-102.943L118.172,0C99.918,29.358,93.6,65.5,90,114Z" fill="#dde3e9" fill-rule="evenodd"/>
        <path id="Coat-Front" d="M82.369,84.233q-23.4,42.2-39.331,60.767L27,141.859Q42.5,45.757,116.748,0h8.738q29.719,101.305,16.386,135H73C74.09,118.563,77.583,101.181,82.369,84.233Z" fill="#ff4133" fill-rule="evenodd"/>
      </g>
    </g>
  </g>
</svg>
