<?xml version="1.0" encoding="utf-8"?>
<!-- Generator: Adobe Illustrator 16.0.0, SVG Export Plug-In . SVG Version: 6.00 Build 0)  -->
<!DOCTYPE svg PUBLIC "-//W3C//DTD SVG 1.1//EN" "http://www.w3.org/Graphics/SVG/1.1/DTD/svg11.dtd">
<svg version="1.1" id="Layer_1" xmlns="http://www.w3.org/2000/svg" xmlns:xlink="http://www.w3.org/1999/xlink" x="0px" y="0px"
	 width="32px" height="32px" viewBox="0 0 32 32" enable-background="new 0 0 32 32" xml:space="preserve">
<g>
	<path fill="none" d="M25.611,3.312l-3.354,3.354l3.076,3.071l3.354-3.355L28.682,6.39c0.85-0.848,0.852-2.225,0.003-3.075
		C27.837,2.465,26.46,2.464,25.611,3.312z"/>
	<path fill="none" d="M3.851,25.074c-0.755,0.751-1.179,1.772-1.176,2.838v1.411h1.41c1.064-0.003,2.083-0.426,2.838-1.175
		l16.525-16.513l-3.078-3.078L3.851,25.074z"/>
	<g>
		<path fill="none" d="M3.851,25.074c-0.755,0.751-1.179,1.772-1.176,2.838v1.411h1.41c1.064-0.003,2.083-0.426,2.838-1.175
			l16.525-16.513l-3.078-3.078L3.851,25.074z"/>
		<path fill="none" d="M25.611,3.312l-3.354,3.354l3.076,3.071l3.354-3.355L28.682,6.39c0.85-0.848,0.852-2.225,0.003-3.075
			C27.837,2.465,26.46,2.464,25.611,3.312z"/>
		<path d="M30.582,1.418L30.582,1.418c-1.894-1.891-4.963-1.891-6.856,0.001L1.96,23.184c-1.258,1.252-1.964,2.954-1.961,4.729v2.75
			C-0.001,31.4,0.598,32,1.337,32h2.748c1.775,0.005,3.479-0.7,4.731-1.959L30.582,8.274C32.473,6.38,32.473,3.312,30.582,1.418z
			 M6.923,28.148c-0.755,0.749-1.774,1.172-2.838,1.175h-1.41v-1.411c-0.002-1.065,0.421-2.087,1.176-2.838l16.52-16.516
			l3.078,3.078L6.923,28.148z M28.682,6.39l0.006-0.008l-3.354,3.355l-3.076-3.071l3.354-3.354c0.85-0.848,2.227-0.847,3.074,0.003
			C29.534,4.166,29.532,5.542,28.682,6.39z"/>
	</g>
</g>
</svg>
