<?xml version="1.0" encoding="utf-8"?>
<!-- Generator: Adobe Illustrator 16.0.0, SVG Export Plug-In . SVG Version: 6.00 Build 0)  -->
<!DOCTYPE svg PUBLIC "-//W3C//DTD SVG 1.1//EN" "http://www.w3.org/Graphics/SVG/1.1/DTD/svg11.dtd">
<svg version="1.1" id="Layer_1" xmlns="http://www.w3.org/2000/svg" xmlns:xlink="http://www.w3.org/1999/xlink" x="0px" y="0px"
	 width="24.537px" height="26.725px" viewBox="-1.102 -0.003 24.537 26.725" enable-background="new -1.102 -0.003 24.537 26.725"
	 xml:space="preserve">
<g>
	<path d="M19.085,18.022c-1.231,0-2.339,0.52-3.131,1.345l-8.527-4.863c0.101-0.367,0.172-0.745,0.172-1.145
		c0-0.397-0.07-0.774-0.171-1.14l8.529-4.863c0.792,0.823,1.898,1.34,3.128,1.34c2.398,0,4.351-1.952,4.351-4.35
		s-1.952-4.35-4.351-4.35s-4.35,1.951-4.35,4.35c0,0.399,0.071,0.779,0.173,1.146l-8.527,4.861c-0.792-0.825-1.9-1.345-3.132-1.345
		c-2.398,0-4.351,1.952-4.351,4.35s1.952,4.35,4.351,4.35c1.229,0,2.336-0.518,3.129-1.341l8.529,4.862
		c-0.101,0.366-0.172,0.744-0.172,1.143c0,2.398,1.951,4.35,4.35,4.35s4.351-1.951,4.351-4.35S21.483,18.022,19.085,18.022z
		 M19.085,24.583c-1.217,0-2.207-0.991-2.207-2.209c0-1.217,0.99-2.207,2.207-2.207c1.215,0.002,2.206,0.992,2.209,2.207
		C21.294,23.592,20.303,24.583,19.085,24.583z M3.243,15.57c-1.218-0.002-2.207-0.993-2.205-2.21
		c0.001-1.196,0.959-2.173,2.146-2.205h0.063c1.216,0.003,2.206,0.995,2.206,2.211C5.452,14.581,4.462,15.57,3.243,15.57z
		 M19.085,2.142L19.085,2.142c1.218,0.002,2.209,0.994,2.209,2.211c-0.003,1.216-0.993,2.205-2.209,2.205
		c-1.217,0-2.207-0.991-2.207-2.208S17.868,2.142,19.085,2.142z"/>
</g>
</svg>
