<svg xmlns="http://www.w3.org/2000/svg" width="24" height="24.001" viewBox="0 0 24 24.001">
  <g id="fi-rr-settings-sliders" transform="translate(0 0)">
    <path id="Path_260" data-name="Path 260" d="M1,4.75H3.736a3.728,3.728,0,0,0,7.2,0H23a1,1,0,0,0,0-2H10.931a3.728,3.728,0,0,0-7.195,0H1a1,1,0,0,0,0,2ZM7.333,2a1.75,1.75,0,1,1-1.75,1.75A1.75,1.75,0,0,1,7.333,2Z"/>
    <path id="Path_261" data-name="Path 261" d="M23,11H20.264a3.727,3.727,0,0,0-7.194,0H1a1,1,0,0,0,0,2H13.07a3.727,3.727,0,0,0,7.194,0H23a1,1,0,0,0,0-2Zm-6.333,2.75A1.75,1.75,0,1,1,18.417,12a1.75,1.75,0,0,1-1.75,1.75Z"/>
    <path id="Path_262" data-name="Path 262" d="M23,19.25H10.931a3.728,3.728,0,0,0-7.195,0H1a1,1,0,0,0,0,2H3.736a3.728,3.728,0,0,0,7.2,0H23a1,1,0,0,0,0-2ZM7.333,22a1.75,1.75,0,1,1,1.75-1.75A1.75,1.75,0,0,1,7.333,22Z"/>
  </g>
</svg>
