<svg width="60" height="76" viewBox="0 0 60 76" fill="none" xmlns="http://www.w3.org/2000/svg">
<path fill-rule="evenodd" clip-rule="evenodd" d="M33.5 66.4706C42.9701 66.4706 50.6471 58.6487 50.6471 49C50.6471 39.3513 42.9701 31.5294 33.5 31.5294C24.0299 31.5294 16.3529 39.3513 16.3529 49C16.3529 58.6487 24.0299 66.4706 33.5 66.4706ZM33.5 76C48.1355 76 60 63.9117 60 49C60 34.0883 48.1355 22 33.5 22C18.8645 22 7 34.0883 7 49C7 63.9117 18.8645 76 33.5 76Z" fill="white"/>
<circle cx="10" cy="10" r="10" fill="#F5773E"/>
<circle cx="33.5" cy="49.5" r="9.5" fill="#F5773E"/>
</svg>
