<?xml version="1.0" encoding="utf-8"?>
<!-- Generator: Adobe Illustrator 16.0.0, SVG Export Plug-In . SVG Version: 6.00 Build 0)  -->
<!DOCTYPE svg PUBLIC "-//W3C//DTD SVG 1.1//EN" "http://www.w3.org/Graphics/SVG/1.1/DTD/svg11.dtd">
<svg version="1.1" id="fi-rr-download" xmlns="http://www.w3.org/2000/svg" xmlns:xlink="http://www.w3.org/1999/xlink" x="0px"
	 y="0px" width="30.734px" height="30.734px" viewBox="0 0 30.734 30.734" enable-background="new 0 0 30.734 30.734"
	 xml:space="preserve">
<g>
	<path d="M29.454,20.49c-0.708,0-1.281,0.573-1.281,1.28v5.119c0,0.708-0.573,1.281-1.281,1.281H3.842
		c-0.708,0-1.281-0.573-1.281-1.281v-5.119c0-0.707-0.572-1.28-1.28-1.28c-0.707,0-1.28,0.573-1.28,1.28v5.119
		c0,2.122,1.72,3.842,3.842,3.842h23.051c2.122,0,3.842-1.72,3.842-3.842v-5.119C30.735,21.064,30.161,20.49,29.454,20.49z"/>
	<path d="M6.773,17.335l0.005,0.002l5.873,5.874c1.503,1.494,3.93,1.494,5.433,0l5.873-5.873c0.513-0.487,0.534-1.298,0.047-1.812
		c-0.487-0.513-1.298-0.533-1.812-0.047c-0.016,0.016-0.031,0.031-0.047,0.047l-5.5,5.5V1.281c0.02-0.708-0.537-1.297-1.244-1.316
		c-0.708-0.021-1.297,0.537-1.316,1.244c-0.001,0.024-0.001,0.048,0,0.072v19.742l-5.5-5.5c-0.487-0.513-1.298-0.534-1.812-0.047
		c-0.513,0.487-0.534,1.298-0.047,1.812C6.741,17.304,6.757,17.32,6.773,17.335z"/>
</g>
</svg>
