<?xml version="1.0" encoding="utf-8"?>
<!-- Generator: Adobe Illustrator 16.0.0, SVG Export Plug-In . SVG Version: 6.00 Build 0)  -->
<!DOCTYPE svg PUBLIC "-//W3C//DTD SVG 1.1//EN" "http://www.w3.org/Graphics/SVG/1.1/DTD/svg11.dtd">
<svg version="1.1" id="Layer_1" xmlns="http://www.w3.org/2000/svg" xmlns:xlink="http://www.w3.org/1999/xlink" x="0px" y="0px"
	 width="38.477px" height="33px" viewBox="0 0 38.477 33" enable-background="new 0 0 38.477 33" xml:space="preserve">
<g>
	<path d="M37.069,10.363l-9.426-9.424C27.041,0.338,26.226,0,25.376,0c-1.771,0-3.206,1.436-3.206,3.206v2.542h-7.742
		C6.463,5.757,0.009,12.211,0,20.176v11.221h0.001C0.001,32.282,0.719,33,1.604,33c0.886,0,1.604-0.718,1.604-1.604
		c0.005-5.309,4.309-9.611,9.618-9.617h9.345v2.539c0,0.852,0.338,1.666,0.938,2.268c1.252,1.252,3.282,1.252,4.534,0l9.426-9.423
		C38.947,15.285,38.947,12.241,37.069,10.363z M34.8,14.897l-9.427,9.421v-4.146c0-0.884-0.717-1.6-1.601-1.6H12.824
		c-3.683-0.001-7.188,1.585-9.618,4.351v-2.748C3.211,13.98,8.232,8.958,14.428,8.951h9.349c0.884,0,1.601-0.716,1.601-1.6V3.206
		L34.8,12.63c0.001,0.001,0.003,0.003,0.004,0.004C35.428,13.26,35.426,14.273,34.8,14.897z"/>
</g>
</svg>
