<svg xmlns="http://www.w3.org/2000/svg" width="302" height="595" viewBox="0 0 302 595">
  <g id="Group_481" data-name="Group 481" transform="translate(-1386 -306)">
    <g id="Rectangle_50" data-name="Rectangle 50" transform="translate(1386 306)" fill="#022959" stroke="#d3d3d3" stroke-width="11">
      <rect width="302" height="595" rx="39" stroke="none"/>
      <rect x="5.5" y="5.5" width="291" height="584" rx="33.5" fill="none"/>
    </g>
    <text id="LinkBSV" transform="translate(1472 834)" fill="#ff793f" font-size="30" font-family="Montserrat-Regular, Montserrat"><tspan x="0" y="0">LinkBSV</tspan></text>
    <text id="Accumulate_your_world" data-name="Accumulate your world" transform="translate(1475 856)" fill="#fff" font-size="11" font-family="Montserrat-Regular, Montserrat"><tspan x="0" y="0">Accumulate your world</tspan></text>
    <g id="user" transform="translate(1503 366)">
      <g id="Group_9" data-name="Group 9" transform="translate(0)">
        <path id="Path_9" data-name="Path 9" d="M58.042,43.958a33.87,33.87,0,0,0-12.92-8.1,19.656,19.656,0,1,0-22.243,0A34.054,34.054,0,0,0,0,68H5.312a28.688,28.688,0,0,1,57.375,0H68A33.778,33.778,0,0,0,58.042,43.958ZM34,34A14.344,14.344,0,1,1,48.344,19.656,14.36,14.36,0,0,1,34,34Z" transform="translate(0)" fill="#fff"/>
      </g>
    </g>
    <text id="_UserName" data-name="@UserName" transform="translate(1502 459)" fill="#fff" font-size="11" font-family="Montserrat-Regular, Montserrat"><tspan x="0" y="0">@UserName</tspan></text>
    <rect id="Rectangle_58" data-name="Rectangle 58" width="222" height="38" transform="translate(1426 502)" fill="#fff"/>
    <rect id="Rectangle_61" data-name="Rectangle 61" width="222" height="38" transform="translate(1426 552)" fill="#fff"/>
    <circle id="Ellipse_21" data-name="Ellipse 21" cx="12.5" cy="12.5" r="12.5" transform="translate(1435 509)" fill="#dfdfdf"/>
    <circle id="Ellipse_26" data-name="Ellipse 26" cx="12.5" cy="12.5" r="12.5" transform="translate(1435 559)" fill="#dfdfdf"/>
    <path id="facebook" d="M10.242,1.647h.906V.07A11.694,11.694,0,0,0,9.828,0a2.094,2.094,0,0,0-2.2,2.331V3.72H6.187V5.483H7.628V9.92H9.394V5.484h1.383L11,3.72h-1.6V2.506c0-.51.138-.858.848-.858Z" transform="translate(1438.733 516.44)"/>
    <text id="Facebook-2" data-name="Facebook" transform="translate(1510 525)" fill="#707070" font-size="11" font-family="Montserrat-Regular, Montserrat"><tspan x="0" y="0">Facebook</tspan></text>
    <text id="Twitter" transform="translate(1518 575)" fill="#707070" font-size="11" font-family="Montserrat-Regular, Montserrat"><tspan x="0" y="0">Twitter</tspan></text>
    <g id="twitter-2" data-name="twitter" transform="translate(1442 519)">
      <g id="Group_446" data-name="Group 446" transform="translate(0 48)">
        <path id="Path_245" data-name="Path 245" d="M10.658,49.025A4.555,4.555,0,0,1,9.4,49.37a2.173,2.173,0,0,0,.961-1.208,4.366,4.366,0,0,1-1.386.529A2.185,2.185,0,0,0,5.2,50.186a2.25,2.25,0,0,0,.051.5A6.185,6.185,0,0,1,.742,48.4a2.186,2.186,0,0,0,.671,2.92,2.158,2.158,0,0,1-.987-.269v.024A2.2,2.2,0,0,0,2.177,53.22a2.181,2.181,0,0,1-.573.072,1.932,1.932,0,0,1-.414-.037,2.206,2.206,0,0,0,2.042,1.522,4.39,4.39,0,0,1-2.709.932A4.091,4.091,0,0,1,0,55.679a6.151,6.151,0,0,0,3.352.981,6.176,6.176,0,0,0,6.219-6.218c0-.1,0-.19-.008-.282A4.359,4.359,0,0,0,10.658,49.025Z" transform="translate(0 -48)"/>
      </g>
    </g>
  </g>
</svg>
