<svg xmlns="http://www.w3.org/2000/svg" width="24.533" height="26.718" viewBox="0 0 24.533 26.718">
  <g id="share_1_" data-name="share (1)" transform="translate(0.25 0.25)">
    <path id="Path_4" data-name="Path 4" d="M313.429,8.193a4.1,4.1,0,1,1,4.1-4.1A4.1,4.1,0,0,1,313.429,8.193Zm0-6.555A2.458,2.458,0,1,0,315.887,4.1,2.461,2.461,0,0,0,313.429,1.639Zm0,0" transform="translate(-293.492)" stroke="#000" stroke-width="0.5"/>
    <path id="Path_5" data-name="Path 5" d="M313.429,360.193a4.1,4.1,0,1,1,4.1-4.1A4.1,4.1,0,0,1,313.429,360.193Zm0-6.555a2.458,2.458,0,1,0,2.458,2.458A2.461,2.461,0,0,0,313.429,353.639Zm0,0" transform="translate(-293.492 -333.975)" stroke="#000" stroke-width="0.5"/>
    <path id="Path_6" data-name="Path 6" d="M4.1,184.193a4.1,4.1,0,1,1,4.1-4.1A4.1,4.1,0,0,1,4.1,184.193Zm0-6.555A2.458,2.458,0,1,0,6.555,180.1,2.461,2.461,0,0,0,4.1,177.639Zm0,0" transform="translate(0 -166.988)" stroke="#000" stroke-width="0.5"/>
    <path id="Path_7" data-name="Path 7" d="M120.509,102.977a.819.819,0,0,1-.406-1.53l10.137-5.779a.819.819,0,0,1,.811,1.424l-10.137,5.779a.821.821,0,0,1-.4.107Zm0,0" transform="translate(-113.56 -90.666)" stroke="#000" stroke-width="0.5"/>
    <path id="Path_8" data-name="Path 8" d="M130.665,278.967a.812.812,0,0,1-.4-.108l-10.137-5.779a.819.819,0,0,1,.811-1.423l10.136,5.779a.82.82,0,0,1-.406,1.532Zm0,0" transform="translate(-113.581 -257.643)" stroke="#000" stroke-width="0.5"/>
  </g>
</svg>
