<svg id="Group_481" data-name="Group 481" xmlns="http://www.w3.org/2000/svg" xmlns:xlink="http://www.w3.org/1999/xlink" width="1920" height="1080" viewBox="0 0 1920 1080">
  <defs>
    <clipPath id="clip-path">
      <rect id="Rectangle_72" data-name="Rectangle 72" width="1920" height="1080" fill="#fff" stroke="#707070" stroke-width="1"/>
    </clipPath>
    <linearGradient id="linear-gradient" x1="0.479" y1="0.96" x2="0.48" y2="-0.034" gradientUnits="objectBoundingBox">
      <stop offset="0" stop-color="#033673"/>
      <stop offset="1" stop-color="#021b3a"/>
    </linearGradient>
  </defs>
  <g id="Mask_Group_8" data-name="Mask Group 8" clip-path="url(#clip-path)">
    <g id="Group_439" data-name="Group 439" transform="translate(150 -336)">
      <circle id="Ellipse_2" data-name="Ellipse 2" cx="1460.5" cy="1460.5" r="1460.5" transform="translate(-2303 -53)" opacity="0.56" fill="url(#linear-gradient)"/>
      <circle id="Ellipse_1" data-name="Ellipse 1" cx="1460.5" cy="1460.5" r="1460.5" transform="translate(-2447 -164)" fill="url(#linear-gradient)"/>
    </g>
  </g>
  <g id="Group_324" data-name="Group 324" transform="translate(590.925 57.697)">
    <g id="Group_316" data-name="Group 316">
      <g id="Group_315" data-name="Group 315">
        <path id="Path_170" data-name="Path 170" d="M437.219,83.187,426.289,87.1l-4.672-14.272c-8.616-26.319-36.123-40.4-61.28-31.4-25.174,9-38.63,37.741-30.014,64.063l4.672,14.272-10.964,3.921c-8.525,3.049-13.14,12.877-10.219,21.8l30.4,92.866c2.967,9.055,12.378,13.886,20.9,10.837L478.3,208.685c8.661-3.1,13.279-12.949,10.315-22l-30.4-92.866A16.359,16.359,0,0,0,437.219,83.187ZM350.948,98.1c-4.723-14.425,2.649-30.177,16.45-35.112s28.854,2.793,33.576,17.218l4.672,14.27-50.026,17.9ZM414.587,180.5l7.764,23.715a1.906,1.906,0,0,1-1.215,2.375l-10.864,3.885a1.759,1.759,0,0,1-2.22-1.145l-7.766-23.715a21.2,21.2,0,0,1-19.143-14.853c-3.753-11.471,2.119-24.012,13.129-27.95s22.99,2.216,26.748,13.687A22.654,22.654,0,0,1,414.587,180.5Z" transform="translate(-312.934 -38.702)" fill="#ff793f"/>
      </g>
    </g>
    <g id="Group_317" data-name="Group 317" transform="translate(21.577 48.129)">
      <path id="Path_171" data-name="Path 171" d="M414.412,61.405c.1.288-20.252,7.908-45.462,17.02s-45.736,16.27-45.84,15.981,20.248-7.906,45.465-17.02S414.308,61.119,414.412,61.405Z" transform="translate(-323.109 -61.397)" fill="#ff793f"/>
    </g>
    <g id="Group_319" data-name="Group 319" transform="translate(53.189 52.046)">
      <g id="Group_318" data-name="Group 318">
        <path id="Path_172" data-name="Path 172" d="M421.742,63.244a2.585,2.585,0,0,1,.244.556c.161.433.365.98.617,1.663.545,1.546,1.3,3.7,2.265,6.428,1.949,5.677,4.723,13.755,8.137,23.7,3.406,10.046,7.448,21.968,11.933,35.2,2.216,6.644,4.638,13.547,6.958,20.838a31.212,31.212,0,0,1,1.591,11.638,15.487,15.487,0,0,1-1.716,5.868,16.04,16.04,0,0,1-4.008,4.725c-3.259,2.606-7.077,4.127-10.762,5.495l-10.932,3.927c-7.168,2.564-14.081,5.039-20.67,7.4-13.165,4.689-25.028,8.913-35.02,12.469l-23.643,8.317c-2.738.937-4.894,1.675-6.445,2.208l-1.686.547a2.314,2.314,0,0,1-.587.151,2.6,2.6,0,0,1,.549-.257l1.648-.651c1.535-.577,3.669-1.383,6.377-2.4,5.632-2.072,13.651-5.017,23.524-8.646,9.967-3.622,21.8-7.921,34.938-12.692L425.7,182.27q5.369-1.94,10.919-3.94c3.658-1.355,7.371-2.859,10.446-5.323a14.986,14.986,0,0,0,3.734-4.39,14.474,14.474,0,0,0,1.593-5.45,30.3,30.3,0,0,0-1.535-11.227c-2.284-7.219-4.7-14.185-6.886-20.821-4.4-13.26-8.366-25.21-11.71-35.277-3.272-10-5.934-18.112-7.8-23.817-.88-2.759-1.571-4.931-2.07-6.493-.21-.7-.38-1.255-.511-1.7A2.35,2.35,0,0,1,421.742,63.244Z" transform="translate(-338.016 -63.244)" fill="#ff793f"/>
      </g>
    </g>
    <g id="Group_321" data-name="Group 321" transform="translate(32.117 18.699)">
      <g id="Group_320" data-name="Group 320">
        <path id="Path_173" data-name="Path 173" d="M373.17,51.622c-.055.093-1.126-.57-3.209-1.41a28.4,28.4,0,0,0-9.259-1.856,31.5,31.5,0,0,0-13.659,2.581,30.489,30.489,0,0,0-12.961,10.832,28.6,28.6,0,0,0-4.984,16.1,49.5,49.5,0,0,0,2.159,13.878c1.118,3.872,2.261,6.943,3.013,9.079a22.841,22.841,0,0,1,1.1,3.349,20.31,20.31,0,0,1-1.5-3.194c-.876-2.089-2.133-5.126-3.359-9.011a47.953,47.953,0,0,1-2.428-14.107,29.243,29.243,0,0,1,5.085-16.717A31.051,31.051,0,0,1,346.641,50a31.471,31.471,0,0,1,14.1-2.426,26.542,26.542,0,0,1,9.388,2.242,18.824,18.824,0,0,1,2.305,1.26C372.939,51.4,373.191,51.588,373.17,51.622Z" transform="translate(-328.079 -47.519)" fill="#ff793f"/>
      </g>
    </g>
    <g id="Group_323" data-name="Group 323" transform="translate(65.6 103.13)">
      <g id="Group_322" data-name="Group 322">
        <path id="Path_174" data-name="Path 174" d="M356.439,89.986a6.111,6.111,0,0,1,1.075-.534,22.634,22.634,0,0,1,3.272-1.179,23.215,23.215,0,0,1,5.512-.914,18.6,18.6,0,0,1,7.439,1.109c5.416,1.9,10.412,7.443,12.864,14.781a21.3,21.3,0,0,1,.1,12.177,27.6,27.6,0,0,1-6.935,11.464l.14-.562c2.816,7.728,5.883,16.14,9.076,24.892l.193.534-.536.178-4.848,1.624q-5.36,1.8-10.552,3.535l-.522.174-.172-.522c-2.905-8.794-6.088-17.082-8.4-25.007l.458.36a21.175,21.175,0,0,1-11.35-4.487,25.534,25.534,0,0,1-7.121-8.508,19.668,19.668,0,0,1-2.248-9.551,22.6,22.6,0,0,1,1.779-8.194,22.3,22.3,0,0,1,7.111-9.324,13.49,13.49,0,0,1,3.667-2.046,39.254,39.254,0,0,0-3.467,2.305,22.636,22.636,0,0,0-6.742,9.3,20.1,20.1,0,0,0,.655,17.126,24.8,24.8,0,0,0,6.937,8.15,20.3,20.3,0,0,0,10.834,4.222l.358.021.1.339c2.339,7.868,5.539,16.123,8.47,24.952l-.7-.348q5.182-1.74,10.55-3.539l4.848-1.624-.344.71c-3.17-8.76-6.22-17.179-9.017-24.916l-.114-.312.252-.25a26.728,26.728,0,0,0,6.7-10.97,20.443,20.443,0,0,0-.006-11.64c-2.318-7.125-7.083-12.542-12.253-14.442a18.372,18.372,0,0,0-7.193-1.211,24.119,24.119,0,0,0-5.44.749C357.96,89.354,356.477,90.077,356.439,89.986Z" transform="translate(-343.868 -87.333)" fill="#ff793f"/>
      </g>
    </g>
  </g>
  <g id="Group_325" data-name="Group 325" transform="translate(345.819 151.507)">
    <path id="Path_175" data-name="Path 175" d="M455.092,707.216l-211.813-.98A46.138,46.138,0,0,1,197.354,659.9L199.6,128.884a46.141,46.141,0,0,1,46.353-45.946l211.813.978a46.14,46.14,0,0,1,45.925,46.336l-2.244,531.02A46.14,46.14,0,0,1,455.092,707.216Z" transform="translate(-197.354 -82.938)" fill="#153340"/>
  </g>
  <g id="Group_326" data-name="Group 326" transform="translate(359.883 169.836)">
    <path id="Path_176" data-name="Path 176" d="M450.029,92.559l-41.066-.191a10.2,10.2,0,0,0-10.016,10.378l-.032,7.45A10.2,10.2,0,0,1,388.9,120.575l-80.048-.369a10.213,10.213,0,0,1-9.929-10.472l.034-7.45a10.213,10.213,0,0,0-9.931-10.47l-14.442-.068-35.943-.165a32.314,32.314,0,0,0-32.463,32.177l-2.191,518.315a32.312,32.312,0,0,0,32.164,32.45l211.389.975A32.315,32.315,0,0,0,480,643.322l2.191-518.315A32.313,32.313,0,0,0,450.029,92.559Z" transform="translate(-203.986 -91.581)" fill="#fff"/>
  </g>
  <g id="Group_330" data-name="Group 330" transform="translate(417.357 634.876)">
    <g id="Group_329" data-name="Group 329">
      <g id="Group_328" data-name="Group 328">
        <g id="Group_327" data-name="Group 327">
          <path id="Path_177" data-name="Path 177" d="M391.208,360.608l-157.191-.725c-1.627-.009-2.939-1.779-2.929-3.957l.174-41.124c.008-2.178,1.336-3.936,2.963-3.93l157.191.725c1.626.009,2.941,1.779,2.931,3.959l-.174,41.12C394.164,358.856,392.837,360.616,391.208,360.608Z" transform="translate(-231.088 -310.872)" fill="#ff793f"/>
        </g>
        <text id="SING_UP" data-name="SING UP" transform="matrix(1, 0.005, -0.004, 1, 45.601, 27.881)" fill="#ff793f" font-size="15" font-family="Montserrat-Regular, Montserrat"><tspan x="0" y="0">SING UP</tspan></text>
      </g>
    </g>
  </g>
  <g id="Group_332" data-name="Group 332" transform="translate(397.02 322.885)">
    <rect id="Rectangle_29" data-name="Rectangle 29" width="54.536" height="10.006" transform="translate(0.046 0) rotate(0.264)" fill="#ff793f"/>
    <rect id="Rectangle_30" data-name="Rectangle 30" width="54.536" height="10.006" transform="translate(0.046 0) rotate(0.264)" fill="#ff793f" opacity="0.1"/>
  </g>
  <g id="Group_334" data-name="Group 334" transform="translate(396.274 347.364)">
    <g id="Group_333" data-name="Group 333">
      <path id="Path_178" data-name="Path 178" d="M436.411,212.472a4.877,4.877,0,0,0,1.245-.291,3.356,3.356,0,0,0,2.053-2.854c0-3.382-.015-8.3-.028-14.609q0-4.768,0-10.565,0-1.45,0-2.958a4.078,4.078,0,0,0-.594-2.778,3.129,3.129,0,0,0-2.509-1.294l-3.323-.006-30.631-.059c-45.431-.17-108.126-.4-177.371-.657a2.875,2.875,0,0,0-2.337,1.181,4.1,4.1,0,0,0-.551,2.772q-.013,3.229-.028,6.436-.029,6.413-.055,12.741-.016,3.165-.03,6.3a18.888,18.888,0,0,0,.087,2.984,2.883,2.883,0,0,0,1.656,1.911,3.21,3.21,0,0,0,1.313.225l1.552.009,3.094.015q3.089.013,6.152.03c16.331.087,32.086.172,47.1.25,30.005.182,57.029.35,79.741.486l53.759.426c6.313.072,11.233.132,14.613.17,1.644.032,2.905.057,3.8.072.859.023,1.3.064,1.3.064s-.439.036-1.3.051l-3.8.036L416.7,212.6l-53.761-.072-79.743-.25-47.093-.184q-3.063-.013-6.152-.028l-3.1-.013-1.552-.006a4.284,4.284,0,0,1-1.728-.31,3.965,3.965,0,0,1-2.292-2.64,6.25,6.25,0,0,1-.132-1.694l.006-1.569q.013-3.14.028-6.3.022-6.327.051-12.741.013-3.206.025-6.436a14.872,14.872,0,0,1,.055-1.694,3.878,3.878,0,0,1,.708-1.722,3.982,3.982,0,0,1,3.234-1.637l177.369.982,30.633.223,3.323.028a3.7,3.7,0,0,1,2.967,1.554,4.612,4.612,0,0,1,.681,3.115c-.008,1.005-.015,1.993-.023,2.958-.036,3.857-.066,7.386-.093,10.563-.078,6.32-.14,11.242-.18,14.626a3.461,3.461,0,0,1-2.237,2.941A2.524,2.524,0,0,1,436.411,212.472Z" transform="translate(-221.146 -175.295)" fill="#e0e0e0"/>
    </g>
  </g>
  <g id="Group_335" data-name="Group 335" transform="translate(411.657 361.375)">
    <rect id="Rectangle_31" data-name="Rectangle 31" width="99.763" height="9.353" transform="translate(0.043 0) rotate(0.265)" fill="#ff793f"/>
    <rect id="Rectangle_32" data-name="Rectangle 32" width="99.763" height="9.353" transform="translate(0.043 0) rotate(0.265)" fill="#ff793f" opacity="0.2"/>
  </g>
  <g id="Group_336" data-name="Group 336" transform="translate(396.633 414.207)">
    <rect id="Rectangle_33" data-name="Rectangle 33" width="54.536" height="10.007" transform="translate(0.046 0) rotate(0.264)" fill="#ff793f"/>
    <rect id="Rectangle_34" data-name="Rectangle 34" width="54.536" height="10.007" transform="translate(0.046 0) rotate(0.264)" fill="#ff793f" opacity="0.1"/>
  </g>
  <g id="Group_338" data-name="Group 338" transform="translate(395.886 438.691)">
    <g id="Group_337" data-name="Group 337">
      <path id="Path_179" data-name="Path 179" d="M435.216,255.528a8.5,8.5,0,0,0,1.255-.238,4.395,4.395,0,0,0,2.687-2.4,5.766,5.766,0,0,0,.367-2.689q-.006-1.543-.013-3.368c0-2.443-.011-5.251-.017-8.408s0-6.682,0-10.527v-2.948a4.592,4.592,0,0,0-.619-2.8,4.154,4.154,0,0,0-2.305-1.786,13.024,13.024,0,0,0-3.2-.184c-8.994-.017-19.224-.036-30.529-.059l-176.756-.655a3.9,3.9,0,0,0-3.87,3.414c-.064,2.017-.034,4.246-.055,6.349q-.029,6.391-.057,12.7-.01,3.152-.028,6.281a13.367,13.367,0,0,0,.134,2.96,3.919,3.919,0,0,0,1.548,2.174,4.206,4.206,0,0,0,2.638.679l3.086.017,6.129.03,46.932.248L362,254.8l53.572.424c6.294.074,11.193.131,14.565.17,1.637.032,2.892.057,3.787.072.855.023,1.292.064,1.292.064s-.437.036-1.294.051l-3.788.036-14.565.038L362,255.581l-79.465-.25c-14.957-.057-30.654-.121-46.93-.185l-6.131-.025-3.086-.013a5.318,5.318,0,0,1-3.247-.865,5.015,5.015,0,0,1-1.987-2.789,13.6,13.6,0,0,1-.174-3.253q.013-3.13.023-6.281.029-6.3.053-12.7c.025-2.157-.017-4.205.061-6.472a5,5,0,0,1,4.973-4.388l176.754.978,30.527.223a13.248,13.248,0,0,1,3.376.233,4.737,4.737,0,0,1,2.619,2.055,5.186,5.186,0,0,1,.679,3.1q-.013,1.5-.023,2.948c-.032,3.845-.066,7.361-.093,10.527s-.061,5.965-.087,8.408c-.015,1.213-.025,2.337-.038,3.368a5.955,5.955,0,0,1-.439,2.78,4.484,4.484,0,0,1-2.859,2.42A3.422,3.422,0,0,1,435.216,255.528Z" transform="translate(-220.963 -218.36)" fill="#e0e0e0"/>
    </g>
  </g>
  <g id="Group_339" data-name="Group 339" transform="translate(396.231 509.452)">
    <rect id="Rectangle_35" data-name="Rectangle 35" width="54.536" height="10.007" transform="translate(0.046) rotate(0.263)" fill="#ff793f"/>
    <rect id="Rectangle_36" data-name="Rectangle 36" width="54.536" height="10.007" transform="translate(0.046) rotate(0.263)" fill="#ff793f" opacity="0.1"/>
  </g>
  <g id="Group_341" data-name="Group 341" transform="translate(395.483 533.936)">
    <g id="Group_340" data-name="Group 340">
      <path id="Path_180" data-name="Path 180" d="M435.024,300.441a8.546,8.546,0,0,0,1.258-.235,4.4,4.4,0,0,0,2.687-2.4,5.756,5.756,0,0,0,.365-2.687q-.006-1.549-.011-3.37c0-2.443-.009-5.251-.015-8.406s0-6.684,0-10.529q0-1.441,0-2.95a4.62,4.62,0,0,0-.619-2.8,4.183,4.183,0,0,0-2.305-1.788,13.266,13.266,0,0,0-3.206-.182c-8.989-.017-19.22-.036-30.525-.059l-176.756-.655a3.9,3.9,0,0,0-3.872,3.414c-.064,2.017-.034,4.246-.055,6.349q-.025,6.391-.055,12.7-.013,3.152-.028,6.281a13.257,13.257,0,0,0,.131,2.96,3.919,3.919,0,0,0,1.548,2.174,4.193,4.193,0,0,0,2.638.679l3.086.015,6.129.032,46.93.248c29.9.185,56.833.348,79.465.488l53.57.422,14.567.172c1.635.03,2.895.053,3.788.072.852.023,1.289.061,1.289.061s-.437.036-1.289.051c-.895.008-2.152.019-3.788.036l-14.567.038c-12.69-.019-30.983-.042-53.574-.072-22.632-.07-49.562-.157-79.465-.25-14.957-.059-30.654-.119-46.93-.182l-6.131-.028-3.083-.013a5.327,5.327,0,0,1-3.249-.865,5.022,5.022,0,0,1-1.987-2.789,13.612,13.612,0,0,1-.174-3.255q.013-3.127.025-6.279.025-6.3.051-12.7c.025-2.159-.017-4.205.061-6.474a5,5,0,0,1,4.973-4.386l176.756.978,30.525.223a13.258,13.258,0,0,1,3.378.233,4.747,4.747,0,0,1,2.617,2.055,5.192,5.192,0,0,1,.681,3.1q-.013,1.5-.025,2.948c-.034,3.845-.064,7.363-.091,10.527s-.061,5.965-.087,8.408q-.022,1.82-.042,3.368a5.926,5.926,0,0,1-.439,2.78,4.474,4.474,0,0,1-2.854,2.42A3.5,3.5,0,0,1,435.024,300.441Z" transform="translate(-220.773 -263.273)" fill="#e0e0e0"/>
    </g>
  </g>
  <g id="Group_342" data-name="Group 342" transform="translate(411.271 452.698)">
    <rect id="Rectangle_37" data-name="Rectangle 37" width="99.764" height="9.354" transform="translate(0.043 0) rotate(0.265)" fill="#ff793f"/>
    <rect id="Rectangle_38" data-name="Rectangle 38" width="99.764" height="9.354" transform="translate(0.043 0) rotate(0.265)" fill="#ff793f" opacity="0.2"/>
  </g>
  <g id="Group_363" data-name="Group 363" transform="translate(411.653 549.121)">
    <g id="Group_352" data-name="Group 352">
      <g id="Group_343" data-name="Group 343">
        <path id="Path_181" data-name="Path 181" d="M237.12,275.106a4.37,4.37,0,1,1-4.341-4.672A4.512,4.512,0,0,1,237.12,275.106Z" transform="translate(-228.398 -270.434)" fill="#ff793f"/>
      </g>
      <g id="Group_344" data-name="Group 344" transform="translate(13.515 0.062)">
        <path id="Path_182" data-name="Path 182" d="M243.493,275.137a4.37,4.37,0,1,1-4.341-4.674A4.512,4.512,0,0,1,243.493,275.137Z" transform="translate(-234.771 -270.463)" fill="#ff793f"/>
      </g>
      <g id="Group_345" data-name="Group 345" transform="translate(27.03 0.125)">
        <path id="Path_183" data-name="Path 183" d="M249.866,275.165a4.37,4.37,0,1,1-4.343-4.672A4.509,4.509,0,0,1,249.866,275.165Z" transform="translate(-241.144 -270.493)" fill="#ff793f"/>
      </g>
      <g id="Group_346" data-name="Group 346" transform="translate(40.545 0.187)">
        <path id="Path_184" data-name="Path 184" d="M256.237,275.194a4.369,4.369,0,1,1-4.339-4.672A4.509,4.509,0,0,1,256.237,275.194Z" transform="translate(-247.517 -270.522)" fill="#ff793f"/>
      </g>
      <g id="Group_347" data-name="Group 347" transform="translate(54.058 0.248)">
        <path id="Path_185" data-name="Path 185" d="M262.611,275.223a4.37,4.37,0,1,1-4.339-4.672A4.506,4.506,0,0,1,262.611,275.223Z" transform="translate(-253.889 -270.551)" fill="#ff793f"/>
      </g>
      <g id="Group_348" data-name="Group 348" transform="translate(67.572 0.312)">
        <path id="Path_186" data-name="Path 186" d="M268.984,275.253a4.37,4.37,0,1,1-4.341-4.672A4.5,4.5,0,0,1,268.984,275.253Z" transform="translate(-260.262 -270.581)" fill="#ff793f"/>
      </g>
      <g id="Group_349" data-name="Group 349" transform="translate(81.087 0.375)">
        <path id="Path_187" data-name="Path 187" d="M275.359,275.281a4.371,4.371,0,1,1-4.343-4.67A4.517,4.517,0,0,1,275.359,275.281Z" transform="translate(-266.635 -270.611)" fill="#ff793f"/>
      </g>
      <g id="Group_350" data-name="Group 350" transform="translate(94.602 0.437)">
        <path id="Path_188" data-name="Path 188" d="M281.73,275.31a4.37,4.37,0,1,1-4.341-4.67A4.513,4.513,0,0,1,281.73,275.31Z" transform="translate(-273.008 -270.64)" fill="#ff793f"/>
      </g>
      <g id="Group_351" data-name="Group 351" transform="translate(108.115 0.498)">
        <path id="Path_189" data-name="Path 189" d="M288.1,275.343a4.371,4.371,0,1,1-4.341-4.674A4.512,4.512,0,0,1,288.1,275.343Z" transform="translate(-279.38 -270.669)" fill="#ff793f"/>
      </g>
    </g>
    <g id="Group_362" data-name="Group 362" opacity="0.2">
      <g id="Group_353" data-name="Group 353">
        <path id="Path_190" data-name="Path 190" d="M237.12,275.106a4.37,4.37,0,1,1-4.341-4.672A4.512,4.512,0,0,1,237.12,275.106Z" transform="translate(-228.398 -270.434)" fill="#ff793f"/>
      </g>
      <g id="Group_354" data-name="Group 354" transform="translate(13.515 0.062)">
        <path id="Path_191" data-name="Path 191" d="M243.493,275.137a4.37,4.37,0,1,1-4.341-4.674A4.512,4.512,0,0,1,243.493,275.137Z" transform="translate(-234.771 -270.463)" fill="#ff793f"/>
      </g>
      <g id="Group_355" data-name="Group 355" transform="translate(27.03 0.125)">
        <path id="Path_192" data-name="Path 192" d="M249.866,275.165a4.37,4.37,0,1,1-4.343-4.672A4.509,4.509,0,0,1,249.866,275.165Z" transform="translate(-241.144 -270.493)" fill="#ff793f"/>
      </g>
      <g id="Group_356" data-name="Group 356" transform="translate(40.545 0.187)">
        <path id="Path_193" data-name="Path 193" d="M256.237,275.194a4.369,4.369,0,1,1-4.339-4.672A4.509,4.509,0,0,1,256.237,275.194Z" transform="translate(-247.517 -270.522)" fill="#ff793f"/>
      </g>
      <g id="Group_357" data-name="Group 357" transform="translate(54.058 0.248)">
        <path id="Path_194" data-name="Path 194" d="M262.611,275.223a4.37,4.37,0,1,1-4.339-4.672A4.506,4.506,0,0,1,262.611,275.223Z" transform="translate(-253.889 -270.551)" fill="#ff793f"/>
      </g>
      <g id="Group_358" data-name="Group 358" transform="translate(67.572 0.312)">
        <path id="Path_195" data-name="Path 195" d="M268.984,275.253a4.37,4.37,0,1,1-4.341-4.672A4.5,4.5,0,0,1,268.984,275.253Z" transform="translate(-260.262 -270.581)" fill="#ff793f"/>
      </g>
      <g id="Group_359" data-name="Group 359" transform="translate(81.087 0.375)">
        <path id="Path_196" data-name="Path 196" d="M275.359,275.281a4.371,4.371,0,1,1-4.343-4.67A4.517,4.517,0,0,1,275.359,275.281Z" transform="translate(-266.635 -270.611)" fill="#ff793f"/>
      </g>
      <g id="Group_360" data-name="Group 360" transform="translate(94.602 0.437)">
        <path id="Path_197" data-name="Path 197" d="M281.73,275.31a4.37,4.37,0,1,1-4.341-4.67A4.513,4.513,0,0,1,281.73,275.31Z" transform="translate(-273.008 -270.64)" fill="#ff793f"/>
      </g>
      <g id="Group_361" data-name="Group 361" transform="translate(108.115 0.498)">
        <path id="Path_198" data-name="Path 198" d="M288.1,275.343a4.371,4.371,0,1,1-4.341-4.674A4.512,4.512,0,0,1,288.1,275.343Z" transform="translate(-279.38 -270.669)" fill="#ff793f"/>
      </g>
    </g>
  </g>
  <g id="Group_366" data-name="Group 366" transform="translate(454.772 232.272)">
    <g id="Group_364" data-name="Group 364" transform="translate(37.583)">
      <path id="Path_199" data-name="Path 199" d="M283.4,136.892a8.219,8.219,0,0,0,4.9-7.609,7.728,7.728,0,1,0-15.423-.07,8.213,8.213,0,0,0,4.914,7.679c-11.867,1.788-11.329,14.688-11.329,14.688l28.065.129S295.162,138.669,283.4,136.892Z" transform="translate(-266.453 -121.023)" fill="#ff793f"/>
      <path id="Path_200" data-name="Path 200" d="M283.4,136.892a8.219,8.219,0,0,0,4.9-7.609,7.728,7.728,0,1,0-15.423-.07,8.213,8.213,0,0,0,4.914,7.679c-11.867,1.788-11.329,14.688-11.329,14.688l28.065.129S295.162,138.669,283.4,136.892Z" transform="translate(-266.453 -121.023)" fill="#ff793f" opacity="0.1"/>
    </g>
    <g id="Group_365" data-name="Group 365" transform="translate(0 38.668)">
      <rect id="Rectangle_39" data-name="Rectangle 39" width="100.079" height="11.966" transform="matrix(1, 0.005, -0.005, 1, 0.055, 0)" fill="#ff793f"/>
      <rect id="Rectangle_40" data-name="Rectangle 40" width="100.079" height="11.966" transform="matrix(1, 0.005, -0.005, 1, 0.055, 0)" fill="#ff793f" opacity="0.2"/>
    </g>
  </g>
  <g id="Group_382" data-name="Group 382" transform="translate(257.469 908.04)">
    <g id="Group_369" data-name="Group 369">
      <path id="Path_201" data-name="Path 201" d="M188.473,458.044V439.9l-32.512-.218-.269,27.409,2.017.151c8.968.581,45.636,1.423,51.646-.437C216.056,464.732,188.473,458.044,188.473,458.044Z" transform="translate(-155.692 -439.683)" fill="#ff793f"/>
    </g>
    <g id="Group_371" data-name="Group 371" transform="translate(0.11 24.871)">
      <g id="Group_370" data-name="Group 370">
        <path id="Path_202" data-name="Path 202" d="M210.064,451.96c0,.307-12.162.554-27.159.554s-27.161-.246-27.161-.554,12.16-.549,27.161-.549S210.064,451.657,210.064,451.96Z" transform="translate(-155.744 -451.411)" fill="#ff793f"/>
      </g>
    </g>
    <g id="Group_373" data-name="Group 373" transform="translate(33.243 18.734)">
      <g id="Group_372" data-name="Group 372">
        <path id="Path_203" data-name="Path 203" d="M171.476,451.847c-.267-.14-.036-1.1.662-2.042s1.546-1.453,1.758-1.238-.227,1.016-.869,1.892S171.75,451.993,171.476,451.847Z" transform="translate(-171.368 -448.517)" fill="#ff793f"/>
      </g>
    </g>
    <g id="Group_375" data-name="Group 375" transform="translate(35.289 19.291)">
      <g id="Group_374" data-name="Group 374">
        <path id="Path_204" data-name="Path 204" d="M172.469,452.748c-.28-.106-.136-1.181.5-2.312s1.48-1.813,1.718-1.627-.165,1.115-.757,2.169S172.759,452.861,172.469,452.748Z" transform="translate(-172.333 -448.78)" fill="#ff793f"/>
      </g>
    </g>
    <g id="Group_377" data-name="Group 377" transform="translate(0.525 18.971)">
      <g id="Group_376" data-name="Group 376">
        <path id="Path_205" data-name="Path 205" d="M165.32,455c-.127.089-.611-.386-1.315-1.185a21.415,21.415,0,0,0-2.852-2.857,7.484,7.484,0,0,0-3.516-1.537c-.99-.132-1.637.021-1.694-.138-.055-.119.549-.571,1.72-.643a6.467,6.467,0,0,1,4.165,1.442,11.844,11.844,0,0,1,2.808,3.272C165.191,454.285,165.441,454.913,165.32,455Z" transform="translate(-155.939 -448.629)" fill="#ff793f"/>
      </g>
    </g>
    <g id="Group_379" data-name="Group 379" transform="translate(30.316 18.519)">
      <g id="Group_378" data-name="Group 378">
        <path id="Path_206" data-name="Path 206" d="M173.123,448.55c.159.257-.4.886-1.328,1.226s-1.76.225-1.8-.074.611-.657,1.425-.961S172.961,448.287,173.123,448.55Z" transform="translate(-169.988 -448.416)" fill="#ff793f"/>
      </g>
    </g>
    <g id="Group_381" data-name="Group 381" transform="translate(29.057 16.375)">
      <g id="Group_380" data-name="Group 380">
        <path id="Path_207" data-name="Path 207" d="M173.279,447.929c.028.3-.838.566-1.936.579s-1.97-.221-1.949-.526.886-.562,1.934-.577S173.247,447.626,173.279,447.929Z" transform="translate(-169.394 -447.405)" fill="#ff793f"/>
      </g>
    </g>
  </g>
  <g id="Group_396" data-name="Group 396" transform="translate(337.527 908.04)">
    <g id="Group_383" data-name="Group 383">
      <path id="Path_208" data-name="Path 208" d="M226.223,458.044l0-18.142-32.512-.218-.269,27.132,2.015.148c8.968.581,45.639,1.7,51.649-.157C253.808,464.732,226.223,458.044,226.223,458.044Z" transform="translate(-193.444 -439.683)" fill="#ff793f"/>
    </g>
    <g id="Group_385" data-name="Group 385" transform="translate(0.11 24.909)">
      <g id="Group_384" data-name="Group 384">
        <path id="Path_209" data-name="Path 209" d="M247.817,451.983c0,.3-12.162.553-27.159.553s-27.161-.25-27.161-.553,12.158-.554,27.161-.554S247.817,451.677,247.817,451.983Z" transform="translate(-193.496 -451.429)" fill="#ff793f"/>
      </g>
    </g>
    <g id="Group_387" data-name="Group 387" transform="translate(33.243 18.734)">
      <g id="Group_386" data-name="Group 386">
        <path id="Path_210" data-name="Path 210" d="M209.228,451.847c-.267-.14-.038-1.1.662-2.042s1.546-1.453,1.758-1.238-.227,1.016-.869,1.892S209.5,451.993,209.228,451.847Z" transform="translate(-209.12 -448.517)" fill="#ff793f"/>
      </g>
    </g>
    <g id="Group_389" data-name="Group 389" transform="translate(35.289 19.291)">
      <g id="Group_388" data-name="Group 388">
        <path id="Path_211" data-name="Path 211" d="M210.221,452.748c-.282-.106-.136-1.181.5-2.312s1.48-1.813,1.718-1.627-.165,1.115-.757,2.169S210.51,452.861,210.221,452.748Z" transform="translate(-210.084 -448.78)" fill="#ff793f"/>
      </g>
    </g>
    <g id="Group_391" data-name="Group 391" transform="translate(0.524 18.971)">
      <g id="Group_390" data-name="Group 390">
        <path id="Path_212" data-name="Path 212" d="M203.07,455c-.125.089-.611-.386-1.313-1.185a21.415,21.415,0,0,0-2.852-2.857,7.482,7.482,0,0,0-3.518-1.537c-.988-.132-1.637.021-1.692-.138-.057-.119.547-.571,1.718-.643a6.469,6.469,0,0,1,4.167,1.442,11.845,11.845,0,0,1,2.808,3.272C202.943,454.285,203.193,454.913,203.07,455Z" transform="translate(-193.691 -448.629)" fill="#ff793f"/>
      </g>
    </g>
    <g id="Group_393" data-name="Group 393" transform="translate(30.316 18.519)">
      <g id="Group_392" data-name="Group 392">
        <path id="Path_213" data-name="Path 213" d="M210.875,448.55c.157.257-.4.886-1.328,1.226s-1.76.225-1.8-.074.611-.657,1.423-.961S210.713,448.287,210.875,448.55Z" transform="translate(-207.74 -448.416)" fill="#ff793f"/>
      </g>
    </g>
    <g id="Group_395" data-name="Group 395" transform="translate(29.055 16.375)">
      <g id="Group_394" data-name="Group 394">
        <path id="Path_214" data-name="Path 214" d="M211.03,447.929c.03.3-.836.566-1.934.579s-1.97-.221-1.951-.526.889-.562,1.936-.577S211,447.626,211.03,447.929Z" transform="translate(-207.145 -447.405)" fill="#ff793f"/>
      </g>
    </g>
  </g>
  <g id="Group_397" data-name="Group 397" transform="translate(187 359.386)">
    <path id="Path_215" data-name="Path 215" d="M425.535,209.553c-.848-.874-2.933-.462-2.933-.462a11.258,11.258,0,0,0-.021-3.677c-.384-1.2-3.058-.967-3.058-.967a12.437,12.437,0,0,1,.07-3.016,1.071,1.071,0,0,0-.621-1.067,9.875,9.875,0,0,0-4-.727c-1.639-1.171,4.986-10.434,7.443-13.4,2.426-2.929,2.019-5.276-.172-5.272-1.493,0-9.227,8.907-11.587,11.9s-8.686,11.3-8.9,4.665-2.884-11.653-4.549-12.51-3.465,1.152-2.543,2.994a24.182,24.182,0,0,1,1.484,6.527,15.894,15.894,0,0,1-.244,5.365,61.857,61.857,0,0,1-2.854,9.577l-.163-.091S346.6,253.77,343.266,256.941c-3,2.85-63.147-3.372-75.2-4.651a83.474,83.474,0,0,0-12.4-.846c-5.227.229-6.158.971-11.388,1.041a257.243,257.243,0,0,0-39.3,3.455A32.55,32.55,0,0,0,179.4,278.124c-12.16,37.955-39.675,127.807-44.578,178.287-3.862,7.261-8.177,15.742-9.931,20.513-3.408,9.278-2.579,9.594-1.431,9.808,3.083.57,6.612-16.091,7.929-12.073s-6.684,19.879-3.438,20.341c4.233.6,7.607-16.9,8-18.367.382-1.419,2.519-.939,2.091.361-.613,1.868-6.58,21.654-2.43,22.288,2.3.352,2.549-3.841,2.549-3.841s4.22-18.923,6.169-18.558c1.979.371-.123,11.564-1.1,15.288-.965,3.681.394,5.637,2.379,4.71,1.353-.632,4.612-11.967,5.49-15.674s3.111-13.909,6.105-7.984,7.526,9.352,9.4,9.426,2.655-2.5,1.041-3.787a24.19,24.19,0,0,1-4.1-5.293,15.877,15.877,0,0,1-2.04-4.967,55.045,55.045,0,0,1-1.478-10.731l-.346-2.182c4.748-23.524,18.437-92.541,38.1-136.634l8.1,16.664,3.516,12.334-21.58,53.311,92.064-1.213-13.723-52.887,16.675-55.148h0c18.049.4,64.4,1.075,72.187-2.407,9.713-4.339,59.97-67.691,59.97-67.691h0a119.835,119.835,0,0,0,9.392-8.152S427.377,211.444,425.535,209.553Z" transform="translate(-122.462 -180.964)" fill="#ffbe9d"/>
  </g>
  <g id="Group_411" data-name="Group 411" transform="translate(219.627 425.595)">
    <g id="Group_398" data-name="Group 398">
      <path id="Path_216" data-name="Path 216" d="M166.57,327.129c2.664-9.117,16.388-54.2,16.388-54.2s6.735,36.753,4.964,41.179a77.917,77.917,0,0,1-5.787,10.936c-15.566,23.7-13.523,35.553-13.523,35.553l94.03-2.867c.229-13.15-7.554-43.724-9.182-48.595s3.773-20.859,3.773-20.859,10.624-10.792,10.213-16.346c-.829-11.189-1.851-14.8-1.851-14.8l57.215,2.108-1.8-38.823-82.245-8.23c-2.846,8.1-28.745,4.131-28.745,4.131-27.961.918-29.655,6.061-41.315,15.088s-30.86,86.563-30.86,86.563Z" transform="translate(-137.848 -212.185)" fill="#ff793f"/>
    </g>
    <g id="Group_400" data-name="Group 400" transform="translate(50.794 102.351)">
      <g id="Group_399" data-name="Group 399">
        <path id="Path_217" data-name="Path 217" d="M195.338,263.872c0,.146-1.894.271-4.956.25s-7.291-.21-11.939-.674-8.833-1.126-11.837-1.718-4.833-1.086-4.805-1.232,1.909.072,4.93.462,7.2.92,11.823,1.387,8.818.778,11.859.995S195.34,263.713,195.338,263.872Z" transform="translate(-161.8 -260.449)" fill="#ff793f"/>
      </g>
    </g>
    <g id="Group_402" data-name="Group 402" transform="translate(54.31 97.746)">
      <g id="Group_401" data-name="Group 401">
        <path id="Path_218" data-name="Path 218" d="M199.916,258.308c.04.134-1.9.872-5.134,1.75a93.225,93.225,0,0,1-25.925,3.079c-3.351-.1-5.408-.361-5.4-.5.006-.163,2.072-.178,5.4-.28s7.91-.348,12.944-.946,9.547-1.436,12.8-2.114S199.872,258.149,199.916,258.308Z" transform="translate(-163.458 -258.277)" fill="#ff793f"/>
      </g>
    </g>
    <g id="Group_404" data-name="Group 404" transform="translate(114.524 62.105)">
      <g id="Group_403" data-name="Group 403">
        <path id="Path_219" data-name="Path 219" d="M199.726,241.471c.148.03-.1,1.864-.643,4.8s-1.406,6.962-2.49,11.382-2.186,8.394-3.06,11.246-1.5,4.591-1.648,4.549.218-1.851.895-4.752c.8-3.308,1.724-7.108,2.74-11.305,1.039-4.188,1.981-7.982,2.8-11.288C199.062,243.212,199.575,241.439,199.726,241.471Z" transform="translate(-191.852 -241.471)" fill="#ff793f"/>
      </g>
    </g>
    <g id="Group_406" data-name="Group 406" transform="translate(1.03 101.683)">
      <g id="Group_405" data-name="Group 405">
        <path id="Path_220" data-name="Path 220" d="M167.012,267.993c-.081.295-6.566-1.217-14.484-3.376s-14.274-4.15-14.193-4.447,6.563,1.219,14.484,3.38S167.093,267.7,167.012,267.993Z" transform="translate(-138.334 -260.134)" fill="#ff793f"/>
      </g>
    </g>
    <g id="Group_408" data-name="Group 408" transform="translate(102.579 2.21)">
      <g id="Group_407" data-name="Group 407">
        <path id="Path_221" data-name="Path 221" d="M212.421,255.466a7.746,7.746,0,0,1-2.434-.013,24.73,24.73,0,0,1-6.468-1.542,27.125,27.125,0,0,1-8.438-5.138,26.435,26.435,0,0,1-6.9-9.939,27.3,27.3,0,0,1-1.9-11.952,18.769,18.769,0,0,1,2.9-9.458,9.79,9.79,0,0,1,5.367-3.953,6.6,6.6,0,0,1,1.811-.242c.418.011.632.055.632.089,0,.106-.88.055-2.314.562a9.814,9.814,0,0,0-4.848,3.978c-2.886,4.538-3.692,12.824-.626,20.566a26.247,26.247,0,0,0,6.563,9.6,27.715,27.715,0,0,0,8.044,5.166C208.907,255.3,212.459,255.23,212.421,255.466Z" transform="translate(-186.219 -213.227)" fill="#ff793f"/>
      </g>
    </g>
    <g id="Group_410" data-name="Group 410" transform="translate(177.698 7.193)">
      <g id="Group_409" data-name="Group 409">
        <path id="Path_222" data-name="Path 222" d="M222.155,254.661c-.3,0-.534-8.75-.511-19.542s.284-19.542.59-19.542.534,8.75.513,19.544S222.46,254.663,222.155,254.661Z" transform="translate(-221.642 -215.577)" fill="#ff793f"/>
      </g>
    </g>
  </g>
  <g id="Group_418" data-name="Group 418" transform="translate(233.061 345.938)">
    <g id="Group_412" data-name="Group 412" transform="translate(55.359 7.743)">
      <path id="Path_223" data-name="Path 223" d="M201.908,252.552c.231-4.733.727-10.079.727-10.079s11.7-1.289,12.412-13.379,0-39.966,0-39.966l-21.315-10.853-23.446,18.5,3.552,60.441,21.576,1.372A6.221,6.221,0,0,0,201.908,252.552Z" transform="translate(-170.287 -178.274)" fill="#ffbe9d" stroke="#fff" stroke-width="1.5"/>
    </g>
    <g id="Group_414" data-name="Group 414" transform="translate(84.221 42.124)">
      <g id="Group_413" data-name="Group 413">
        <path id="Path_224" data-name="Path 224" d="M188.764,201.363c.034.008.036.225-.184.52a1.659,1.659,0,0,1-1.347.592c-1.357-.064-2.666-1.565-3.147-3.4a5.814,5.814,0,0,1-.059-2.687,2.3,2.3,0,0,1,1.275-1.822,1.152,1.152,0,0,1,.9.021,1.025,1.025,0,0,1,.479.488c.159.361.036.579,0,.56-.049,0-.036-.2-.212-.426a.781.781,0,0,0-1.007-.212,1.9,1.9,0,0,0-.872,1.514,5.674,5.674,0,0,0,.1,2.4c.424,1.641,1.563,2.986,2.577,3.107a1.531,1.531,0,0,0,1.141-.312C188.639,201.514,188.719,201.342,188.764,201.363Z" transform="translate(-183.897 -194.486)" fill="#eb996e" stroke="#fff" stroke-width="1.5"/>
      </g>
    </g>
    <g id="Group_415" data-name="Group 415">
      <path id="Path_225" data-name="Path 225" d="M251.569,186.694c-1.629-5.567-7.543-8.33-12.934-9.857-8.2-2.324-17.084-3.353-25.1-.4s-17.648,8.139-17.646,16.991c-4.729-.388-7.431,3.756-9.308,8.89a33.935,33.935,0,0,0-2.012,9.753l-.076-.025c-.609,11.585-3.836,27.547-11.348,36.115-4.148,4.731-10.12,8-12.537,13.892-2.1,5.121-1.014,11.174-3,16.344-1.754,4.564-5.637,7.8-8.421,11.774-6.063,8.648-6.476,20.865-2.021,30.516s13.284,16.713,23.083,19.949,20.475,2.88,30.448.284a50.892,50.892,0,0,0,20.4-10.1,34.179,34.179,0,0,0,11.71-19.769c1.5-8.663-.931-17.459-2.714-26.063-5.641-27.221-4.031-28.635,3.09-53.884.161-.445.259-.908.384-1.366.093-.335.182-.655.28-1l-.015-.006a15.567,15.567,0,0,0,.333-3.02,5.8,5.8,0,0,1-6.131-1.325,6.411,6.411,0,0,1-1.451-6.347c.827-2.5,3.117-4.165,5.469-5.153s4.882-1.48,7.191-2.579c4.9-2.328,8.29-7.166,10.6-12.232C251.463,194.519,252.67,190.452,251.569,186.694Z" transform="translate(-144.183 -174.623)" fill="#263238" stroke="#fff" stroke-width="1.5"/>
    </g>
    <g id="Group_417" data-name="Group 417" transform="translate(86.275 49.515)">
      <g id="Group_416" data-name="Group 416">
        <path id="Path_226" data-name="Path 226" d="M188.516,197.973a9.639,9.639,0,0,1,1.115,2.1c.63,1.338,1.476,3.228,2.413,5.4l.176.411-.447.038c-.708.062-1.423.121-2.159.187-1.48.1-2.714.274-4.148.257a.751.751,0,0,1-.547-.481,1.248,1.248,0,0,1-.034-.59c.064-.333.136-.579.2-.859l.373-1.5a14.29,14.29,0,0,1,.893-2.937,14.062,14.062,0,0,1-.435,3.037l-.295,1.518c-.11.511-.295,1.279-.019,1.219,1.054-.047,2.56-.223,3.955-.324.738-.059,1.453-.115,2.159-.172l-.271.45c-.908-2.182-1.677-4.106-2.2-5.488A9.611,9.611,0,0,1,188.516,197.973Z" transform="translate(-184.866 -197.972)" fill="#e8505b" stroke="#fff" stroke-width="1.5"/>
      </g>
    </g>
  </g>
  <g id="Group_436" data-name="Group 436" transform="translate(245.836 571.144)">
    <g id="Group_419" data-name="Group 419">
      <path id="Path_227" data-name="Path 227" d="M154.762,283.686l94.03-2.867,40.9,159.768-7.533,183.265h-49.77l6.169-179.363L202.182,333.267l5.6,297.689-50.245.742-5.3-279.816c-.221-7.776-2.78-25.325-1.826-33.04Z" transform="translate(-150.207 -280.819)" fill="#263238" stroke="#fff" stroke-width="1"/>
    </g>
    <g id="Group_421" data-name="Group 421" transform="translate(33.722 48.481)">
      <g id="Group_420" data-name="Group 420">
        <path id="Path_228" data-name="Path 228" d="M196.884,309.908c-.019.146-1.783.059-4.612-.274s-6.72-.931-10.983-1.786-8.082-1.813-10.82-2.6-4.4-1.385-4.36-1.529c.083-.307,6.911,1.347,15.4,3.047S196.925,309.592,196.884,309.908Z" transform="translate(-166.109 -303.681)" fill="#455a64" stroke="#fff" stroke-width="1"/>
      </g>
    </g>
    <g id="Group_423" data-name="Group 423" transform="translate(81.166 332.431)">
      <g id="Group_422" data-name="Group 422">
        <path id="Path_229" data-name="Path 229" d="M238.813,438.127c0,.307-11.269.553-25.164.553s-25.168-.246-25.168-.553,11.265-.549,25.168-.549S238.813,437.824,238.813,438.127Z" transform="translate(-188.481 -437.578)" fill="#455a64" stroke="#fff" stroke-width="1"/>
      </g>
    </g>
    <g id="Group_425" data-name="Group 425" transform="translate(8.303 341.853)">
      <g id="Group_424" data-name="Group 424">
        <path id="Path_230" data-name="Path 230" d="M202.948,442.572c0,.305-10.93.553-24.413.553s-24.413-.248-24.413-.553,10.928-.551,24.413-.551S202.948,442.267,202.948,442.572Z" transform="translate(-154.122 -442.021)" fill="#455a64" stroke="#fff" stroke-width="1"/>
      </g>
    </g>
    <g id="Group_427" data-name="Group 427" transform="translate(45.794 51.067)">
      <g id="Group_426" data-name="Group 426">
        <path id="Path_231" data-name="Path 231" d="M176.664,595.474c-.305,0-1.627-65.045-2.952-145.269-1.325-80.256-2.152-145.3-1.847-145.3s1.627,65.03,2.952,145.286C176.142,530.412,176.969,595.47,176.664,595.474Z" transform="translate(-171.801 -304.9)" fill="#455a64" stroke="#fff" stroke-width="1"/>
      </g>
    </g>
    <g id="Group_429" data-name="Group 429" transform="translate(90.955 2.867)">
      <g id="Group_428" data-name="Group 428">
        <path id="Path_232" data-name="Path 232" d="M226.955,612.285a5.148,5.148,0,0,1-.023-.865l.047-2.541c.066-2.292.161-5.571.284-9.766.295-8.536.721-20.787,1.245-35.9,1.162-30.363,2.763-72.212,4.53-118.438.017-.426.034-.852.051-1.247l.015.157c-11.144-44.623-21.217-84.958-28.518-114.2-3.584-14.567-6.487-26.37-8.51-34.592-.971-4.044-1.728-7.206-2.258-9.416-.238-1.037-.422-1.849-.56-2.454a4.855,4.855,0,0,1-.155-.846,5.375,5.375,0,0,1,.263.819c.163.6.384,1.4.666,2.428.579,2.2,1.4,5.342,2.46,9.365,2.1,8.2,5.121,19.974,8.847,34.507,7.386,29.223,17.57,69.53,28.837,114.125l.021.076,0,.081c-.015.39-.034.819-.049,1.247-1.894,46.22-3.609,88.062-4.854,118.424-.672,15.11-1.217,27.354-1.6,35.888-.21,4.19-.375,7.467-.49,9.757-.066,1.073-.117,1.913-.157,2.536A4.958,4.958,0,0,1,226.955,612.285Z" transform="translate(-193.097 -282.171)" fill="#455a64" stroke="#fff" stroke-width="1"/>
      </g>
    </g>
    <g id="Group_431" data-name="Group 431" transform="translate(85.995 160.414)">
      <g id="Group_430" data-name="Group 430">
        <path id="Path_233" data-name="Path 233" d="M213.356,356.54c.051.3-4.873,1.4-11,2.449-4.572.787-8.521,1.325-10.247,1.423l0-.43c.573.157.88.278.867.356s-.341.1-.935.074l-1.285-.057,1.283-.373c1.658-.486,5.56-1.3,10.133-2.08C208.3,356.849,213.3,356.238,213.356,356.54Z" transform="translate(-190.758 -356.463)" fill="#455a64" stroke="#fff" stroke-width="1"/>
      </g>
    </g>
    <g id="Group_433" data-name="Group 433" transform="translate(87.891 164.765)">
      <g id="Group_432" data-name="Group 432">
        <path id="Path_234" data-name="Path 234" d="M211.4,360.337c-.04.307-4.46-.032-9.9-.45s-9.857-.778-9.85-1.088,4.462-.445,9.937-.015S211.442,360.042,211.4,360.337Z" transform="translate(-191.652 -358.515)" fill="#455a64" stroke="#fff" stroke-width="1"/>
      </g>
    </g>
    <g id="Group_434" data-name="Group 434" transform="translate(4.138)">
      <path id="Path_235" data-name="Path 235" d="M152.158,287.062c2.273,3.2,5.516,4.322,9.284,4.939a42.032,42.032,0,0,0,11.4-.214c24.271-2.693,49.99-5.179,73.761-10.968-30.769,1.724-63.261,1.143-94.03,2.867,0,0-.263,2.116-.324,2.628" transform="translate(-152.158 -280.819)" stroke="#fff" stroke-width="1" opacity="0.2"/>
    </g>
    <g id="Group_435" data-name="Group 435" transform="translate(35.854 49.613)" opacity="0.2">
      <path id="Path_236" data-name="Path 236" d="M167.114,304.214l17.335,67.293-1.213-64.458Z" transform="translate(-167.114 -304.214)" stroke="#fff" stroke-width="1"/>
    </g>
  </g>
</svg>
