<?xml version="1.0" encoding="utf-8"?>
<!-- Generator: Adobe Illustrator 16.0.0, SVG Export Plug-In . SVG Version: 6.00 Build 0)  -->
<!DOCTYPE svg PUBLIC "-//W3C//DTD SVG 1.1//EN" "http://www.w3.org/Graphics/SVG/1.1/DTD/svg11.dtd">
<svg version="1.1" id="analytics" xmlns="http://www.w3.org/2000/svg" xmlns:xlink="http://www.w3.org/1999/xlink" x="0px" y="0px"
	 width="75.48px" height="75.48px" viewBox="0 0 75.48 75.48" enable-background="new 0 0 75.48 75.48" xml:space="preserve">
<rect x="25.16" y="40.891" fill="none" width="6.29" height="31.444"/>
<rect x="44.03" y="47.175" fill="none" width="6.29" height="25.16"/>
<rect x="62.9" y="28.305" fill="none" width="6.29" height="44.03"/>
<polygon fill="none" points="6.29,72.335 12.58,72.335 12.58,72.334 12.58,56.609 6.29,56.609 "/>
<g>
	<path d="M73.908,72.329h-1.572V26.727c0-0.868-0.704-1.572-1.573-1.572h-9.435c-0.869,0-1.573,0.704-1.573,1.572v45.603h-6.289
		V45.596c-0.001-0.868-0.705-1.571-1.573-1.571h-9.435c-0.869,0-1.573,0.704-1.573,1.572v26.732H34.6V39.302
		c-0.003-0.868-0.709-1.569-1.577-1.566h-9.435c-0.869,0-1.573,0.704-1.573,1.572v33.021h-6.289V55.031
		c0-0.868-0.704-1.572-1.573-1.572H4.718c-0.869,0-1.573,0.704-1.573,1.573v17.297H1.573C0.704,72.329,0,73.033,0,73.902
		s0.704,1.572,1.572,1.572h3.146h9.435h9.368c0.023,0.001,0.044,0.007,0.068,0.007h9.435c0.024,0,0.046-0.006,0.07-0.007h9.365
		h9.435h9.426c0.003,0,0.007,0.001,0.01,0.001h9.435c0.003,0,0.007-0.001,0.01-0.001h3.136c0.868,0,1.572-0.704,1.572-1.572
		S74.777,72.329,73.908,72.329z M12.58,72.328L12.58,72.328l-6.29,0.001V56.603h6.29V72.328z M31.45,72.329h-6.29V40.885h6.29
		V72.329z M50.32,72.329h-6.29v-25.16h6.29V72.329z M69.19,72.329H62.9v-44.03h6.29V72.329z"/>
	<path d="M9.435,40.885c3.474,0,6.29-2.816,6.29-6.29c-0.001-1.106-0.291-2.144-0.792-3.047l9.6-7.654
		c1.052,0.792,2.356,1.267,3.774,1.267c2.312,0,4.327-1.251,5.42-3.109l7.253,2.068c-0.058,0.34-0.094,0.687-0.094,1.042
		c0,3.474,2.816,6.29,6.29,6.29s6.29-2.816,6.29-6.29c-0.002-1.164-0.325-2.251-0.878-3.187l10.269-10.268
		c0.935,0.551,2.021,0.873,3.186,0.873c3.474,0,6.29-2.816,6.29-6.29c-0.006-3.472-2.818-6.285-6.29-6.29
		c-3.475,0-6.29,2.815-6.29,6.29c0,1.168,0.324,2.258,0.879,3.195L50.365,19.75c-0.937-0.553-2.023-0.877-3.189-0.879
		c-1.979,0-3.744,0.916-4.897,2.347l-7.689-2.193c0.002-0.052,0.008-0.103,0.008-0.154c-0.006-3.472-2.818-6.285-6.29-6.29
		c-3.474,0-6.29,2.815-6.29,6.29c0,0.915,0.2,1.782,0.552,2.567l-9.814,7.826c-0.964-0.603-2.099-0.957-3.319-0.959
		c-3.474,0-6.29,2.816-6.29,6.29S5.961,40.885,9.435,40.885z M66.041,3.145c1.736,0,3.145,1.408,3.145,3.146
		c-0.001,1.736-1.408,3.144-3.145,3.145c-0.857,0-1.632-0.345-2.199-0.9c-0.006-0.006-0.01-0.014-0.017-0.021
		c-0.008-0.008-0.018-0.013-0.025-0.021c-0.558-0.567-0.904-1.344-0.904-2.203C62.896,4.553,64.304,3.145,66.041,3.145z
		 M47.175,22.016c1.737,0,3.145,1.408,3.145,3.146c-0.001,1.736-1.408,3.143-3.145,3.145c-1.737,0-3.146-1.408-3.145-3.145
		C44.031,23.424,45.438,22.016,47.175,22.016z M28.306,15.725c1.737,0,3.146,1.408,3.146,3.146
		c-0.003,1.735-1.409,3.142-3.146,3.144v0.001c-1.737,0-3.145-1.408-3.145-3.145C25.161,17.133,26.569,15.725,28.306,15.725z
		 M9.435,31.45c1.737,0,3.146,1.407,3.146,3.145c-0.002,1.736-1.409,3.144-3.146,3.146c-1.736,0-3.145-1.408-3.145-3.146
		S7.698,31.45,9.435,31.45z"/>
</g>
</svg>
