<svg width="246" height="76" viewBox="0 0 246 76" fill="none" xmlns="http://www.w3.org/2000/svg">
<path d="M78.1779 54.6268H89.2775C89.5713 54.6268 89.8251 54.7357 90.0388 54.9535C90.2525 55.1714 90.3594 55.43 90.3594 55.7296V61.8972C90.3594 62.1967 90.2525 62.4554 90.0388 62.6732C89.8251 62.8911 89.5713 63 89.2775 63H69.0819C68.7881 63 68.5343 62.8911 68.3206 62.6732C68.1069 62.4554 68 62.1967 68 61.8972V35.5113C68 35.2117 68.1069 34.9531 68.3206 34.7352C68.5343 34.5174 68.7881 34.4085 69.0819 34.4085H77.096C77.3899 34.4085 77.6436 34.5174 77.8574 34.7352C78.0711 34.9531 78.1779 35.2117 78.1779 35.5113V54.6268Z" fill="white"/>
<path d="M101.637 63H94.4641C94.1702 63 93.9165 62.8911 93.7027 62.6732C93.489 62.4554 93.3822 62.1967 93.3822 61.8972V42.8634C93.3822 42.5639 93.489 42.3052 93.7027 42.0873C93.9165 41.8695 94.1702 41.7606 94.4641 41.7606H101.637C101.931 41.7606 102.184 41.8695 102.398 42.0873C102.612 42.3052 102.719 42.5639 102.719 42.8634V61.8972C102.719 62.1967 102.612 62.4554 102.398 62.6732C102.184 62.8911 101.931 63 101.637 63Z" fill="white"/>
<path d="M130.328 50.6239V61.8972C130.328 62.1967 130.221 62.4554 130.007 62.6732C129.793 62.8911 129.539 63 129.246 63H121.592C121.298 63 121.045 62.8911 120.831 62.6732C120.617 62.4554 120.51 62.1967 120.51 61.8972V50.9099C120.51 49.4122 119.842 48.6634 118.507 48.6634C117.171 48.6634 116.503 49.4122 116.503 50.9099V61.8972C116.503 62.1967 116.396 62.4554 116.183 62.6732C115.969 62.8911 115.715 63 115.421 63H107.808C107.514 63 107.26 62.8911 107.047 62.6732C106.833 62.4554 106.726 62.1967 106.726 61.8972V42.8634C106.726 42.5639 106.833 42.3052 107.047 42.0873C107.26 41.8695 107.514 41.7606 107.808 41.7606H114.82C115.114 41.7606 115.368 41.8695 115.582 42.0873C115.795 42.3052 115.902 42.5639 115.902 42.8634V44.2113C116.597 43.3671 117.532 42.6864 118.707 42.169C119.909 41.6244 121.191 41.3521 122.554 41.3521C124.744 41.3521 126.588 42.1418 128.084 43.7211C129.58 45.2732 130.328 47.5742 130.328 50.6239Z" fill="white"/>
<path d="M143.294 35.1028V48.3366L146.82 42.4549C147.087 41.992 147.475 41.7606 147.982 41.7606H156.077C156.344 41.7606 156.571 41.8559 156.758 42.0465C156.945 42.2371 157.038 42.4549 157.038 42.7C157.038 42.9451 156.972 43.1629 156.838 43.3535L151.348 51.3183L157.84 61.4887C157.947 61.6521 158 61.8563 158 62.1014C158 62.3192 157.907 62.5235 157.72 62.7141C157.533 62.9047 157.305 63 157.038 63H148.624C148.089 63 147.675 62.7685 147.381 62.3056L143.294 55.362V61.8972C143.294 62.1967 143.187 62.4554 142.974 62.6732C142.76 62.8911 142.506 63 142.212 63H135.2C134.906 63 134.652 62.8911 134.439 62.6732C134.225 62.4554 134.118 62.1967 134.118 61.8972V35.1028C134.118 34.8033 134.225 34.5446 134.439 34.3268C134.652 34.1089 134.906 34 135.2 34H142.212C142.506 34 142.76 34.1089 142.974 34.3268C143.187 34.5446 143.294 34.8033 143.294 35.1028Z" fill="white"/>
<path d="M184.795 47.9361C186.338 48.4463 187.562 49.3056 188.466 50.5139C189.371 51.6954 189.823 53.1722 189.823 54.9444C189.823 57.388 188.892 59.281 187.029 60.6236C185.167 61.9394 182.453 62.5972 178.888 62.5972H165V34.4028H178.09C181.389 34.4028 183.93 35.0606 185.712 36.3764C187.495 37.6653 188.386 39.4509 188.386 41.7333C188.386 43.1296 188.067 44.3648 187.429 45.4389C186.79 46.513 185.912 47.3454 184.795 47.9361ZM170.188 38.5111V46.2847H177.531C179.34 46.2847 180.724 45.9625 181.682 45.3181C182.666 44.6468 183.158 43.6801 183.158 42.4181C183.158 41.1292 182.666 40.1625 181.682 39.5181C180.724 38.8468 179.34 38.5111 177.531 38.5111H170.188ZM178.569 58.4889C182.586 58.4889 184.595 57.1329 184.595 54.4208C184.595 51.7088 182.586 50.3528 178.569 50.3528H170.188V58.4889H178.569Z" fill="#F5773E"/>
<path d="M204.02 63C201.865 63 199.777 62.6912 197.754 62.0736C195.759 61.456 194.176 60.637 193.005 59.6167L194.801 55.5486C195.945 56.4616 197.342 57.2134 198.992 57.8042C200.668 58.3681 202.344 58.65 204.02 58.65C206.095 58.65 207.638 58.3144 208.649 57.6431C209.687 56.9718 210.206 56.0856 210.206 54.9847C210.206 54.1792 209.913 53.5213 209.328 53.0111C208.769 52.4741 208.051 52.0579 207.173 51.7625C206.295 51.4671 205.098 51.1315 203.581 50.7556C201.453 50.2454 199.723 49.7352 198.393 49.225C197.089 48.7148 195.959 47.9227 195.001 46.8486C194.07 45.7477 193.604 44.2708 193.604 42.4181C193.604 40.8606 194.016 39.4509 194.841 38.1889C195.693 36.9 196.956 35.8796 198.632 35.1278C200.335 34.3759 202.41 34 204.858 34C206.561 34 208.237 34.2148 209.887 34.6444C211.536 35.0741 212.96 35.6917 214.157 36.4972L212.521 40.5653C211.297 39.8403 210.02 39.2898 208.689 38.9139C207.359 38.538 206.069 38.35 204.818 38.35C202.77 38.35 201.24 38.6991 200.229 39.3972C199.244 40.0954 198.752 41.0218 198.752 42.1764C198.752 42.9819 199.032 43.6398 199.59 44.15C200.176 44.6602 200.907 45.063 201.785 45.3583C202.663 45.6537 203.86 45.9894 205.377 46.3653C207.452 46.8486 209.155 47.3588 210.485 47.8958C211.816 48.406 212.946 49.1981 213.877 50.2722C214.835 51.3463 215.314 52.7963 215.314 54.6222C215.314 56.1796 214.889 57.5894 214.037 58.8514C213.212 60.1134 211.949 61.1204 210.246 61.8722C208.543 62.6241 206.468 63 204.02 63Z" fill="#F5773E"/>
<path d="M246 34.4028L233.828 62.5972H228.72L216.508 34.4028H222.135L231.433 56.1528L240.812 34.4028H246Z" fill="#F5773E"/>
<path fill-rule="evenodd" clip-rule="evenodd" d="M33.5 66.4706C42.9701 66.4706 50.6471 58.6487 50.6471 49C50.6471 39.3513 42.9701 31.5294 33.5 31.5294C24.0299 31.5294 16.3529 39.3513 16.3529 49C16.3529 58.6487 24.0299 66.4706 33.5 66.4706ZM33.5 76C48.1355 76 60 63.9117 60 49C60 34.0883 48.1355 22 33.5 22C18.8645 22 7 34.0883 7 49C7 63.9117 18.8645 76 33.5 76Z" fill="white"/>
<circle cx="10" cy="10" r="10" fill="#F5773E"/>
<circle cx="33.5" cy="49.5" r="9.5" fill="#F5773E"/>
<path d="M98 29L103.196 37.25H92.8038L98 29Z" fill="#EAEAEA"/>
</svg>
