<?xml version="1.0" encoding="utf-8"?>
<!DOCTYPE svg PUBLIC "-//W3C//DTD SVG 1.1//EN" "http://www.w3.org/Graphics/SVG/1.1/DTD/svg11.dtd">
<svg version="1.1" xmlns="http://www.w3.org/2000/svg" xmlns:xlink="http://www.w3.org/1999/xlink">
<defs>
    <symbol id="icon-users" viewBox="0 0 32 32" width="32px" height="32px" >
    <path style="fill:#000000;" d="M27.314,20.688h-0.002l0.002-0.002c-1.666-1.67-3.699-2.975-5.969-3.777l-0.113-0.034c2.438-1.69,4.017-4.474,4.017-7.627
            c0-5.109-4.142-9.25-9.25-9.25c-5.109,0-9.25,4.141-9.25,9.25c0,3.153,1.577,5.937,3.986,7.606l0.031,0.021
            C4.448,19.115,0.004,25.038,0,32v0.001h2.5C2.527,24.566,8.561,18.549,16,18.549c7.439,0,13.473,6.018,13.5,13.449v0.003H32
            c0-0.013,0-0.028,0-0.043C32,27.553,30.209,23.566,27.314,20.688z M16,16c-3.728,0-6.75-3.022-6.75-6.75S12.272,2.5,16,2.5
            c3.729,0,6.75,3.022,6.75,6.75C22.746,12.976,19.727,15.996,16,16z"/>
    </symbol>

</defs>
</svg>