<?xml version="1.0" encoding="utf-8"?>
<!-- Generator: Adobe Illustrator 16.0.0, SVG Export Plug-In . SVG Version: 6.00 Build 0)  -->
<!DOCTYPE svg PUBLIC "-//W3C//DTD SVG 1.1//EN" "http://www.w3.org/Graphics/SVG/1.1/DTD/svg11.dtd">
<svg version="1.1" id="Layer_1" xmlns="http://www.w3.org/2000/svg" xmlns:xlink="http://www.w3.org/1999/xlink" x="0px" y="0px"
	 width="24.425px" height="24.278px" viewBox="26.038 24.84 24.425 24.278" enable-background="new 26.038 24.84 24.425 24.278"
	 xml:space="preserve">
<filter  height="77" width="77" x="0" y="0" filterUnits="userSpaceOnUse" id="Ellipse_22">
	<feOffset  dy="3" input="SourceAlpha"></feOffset>
	<feGaussianBlur  result="blur" stdDeviation="3"></feGaussianBlur>
	<feFlood  flood-opacity="0.161"></feFlood>
	<feComposite  operator="in" in2="blur"></feComposite>
	<feComposite  operator="over" in="SourceGraphic"></feComposite>
</filter>
<g transform="matrix(1, 0, 0, 1, 594, 880)" filter="url(#Ellipse_22)">
</g>
<path d="M48.025,34.542h-7.313v-7.313c-0.027-1.308-1.082-2.361-2.39-2.389c-1.346-0.027-2.459,1.043-2.486,2.389v7.313h-7.313
	c-0.033-0.001-0.066-0.001-0.099,0c-1.347,0.027-2.415,1.141-2.388,2.486s1.141,2.416,2.486,2.388h7.313v7.313
	c0.025,1.308,1.08,2.361,2.388,2.389c1.348,0.027,2.461-1.043,2.488-2.389v-7.313h7.313c1.346,0,2.438-1.091,2.438-2.437
	S49.371,34.542,48.025,34.542z"/>
</svg>
