<?xml version="1.0" encoding="utf-8"?>
<!-- Generator: Adobe Illustrator 16.0.0, SVG Export Plug-In . SVG Version: 6.00 Build 0)  -->
<!DOCTYPE svg PUBLIC "-//W3C//DTD SVG 1.1//EN" "http://www.w3.org/Graphics/SVG/1.1/DTD/svg11.dtd">
<svg version="1.1" id="Layer_1" xmlns="http://www.w3.org/2000/svg" xmlns:xlink="http://www.w3.org/1999/xlink" x="0px" y="0px"
	 width="27.352px" height="32.824px" viewBox="0 0 27.352 32.824" enable-background="new 0 0 27.352 32.824" xml:space="preserve">
<path fill="none" d="M15.044,2.735h-2.735C10.571,2.737,9.022,3.832,8.44,5.47h10.474C18.331,3.832,16.782,2.737,15.044,2.735z"/>
<path fill="none" d="M5.473,25.984c0,2.265,1.836,4.1,4.1,4.1h8.21c2.264,0,4.1-1.835,4.1-4.1V8.206H5.473V25.984z M15.045,15.044
	c-0.001-0.024-0.001-0.049,0-0.074c0.021-0.755,0.649-1.351,1.404-1.331s1.351,0.649,1.33,1.404v8.206
	c0,0.755-0.612,1.367-1.367,1.367s-1.367-0.611-1.367-1.367V15.044z M9.574,15.044c-0.001-0.024-0.001-0.049,0-0.074
	c0.02-0.755,0.648-1.351,1.404-1.331c0.755,0.021,1.351,0.649,1.33,1.404v8.206c0,0.755-0.612,1.367-1.368,1.367
	c-0.755,0-1.366-0.611-1.366-1.367V15.044z"/>
<g>
	<path d="M26.059,5.471c-0.024-0.001-0.049-0.001-0.074,0V5.47h-4.239C21.091,2.289,18.292,0.004,15.044,0h-2.735
		c-3.247,0.004-6.046,2.289-6.7,5.47h-4.24C0.613,5.49,0.017,6.119,0.037,6.875c0.02,0.727,0.604,1.311,1.331,1.331h1.366v17.78
		c0.005,3.774,3.063,6.833,6.838,6.839h8.206c3.775-0.006,6.834-3.064,6.839-6.839V8.206h1.367c0.756,0.021,1.385-0.575,1.405-1.331
		C27.409,6.12,26.815,5.491,26.059,5.471z M12.309,2.735h2.735c1.738,0.002,3.287,1.097,3.869,2.735H8.44
		C9.022,3.832,10.571,2.737,12.309,2.735z M21.882,25.984c0,2.265-1.836,4.1-4.1,4.1h-8.21c-2.264,0-4.1-1.835-4.1-4.1V8.206h16.409
		V25.984z"/>
	<path d="M10.941,24.617c0.756,0,1.368-0.612,1.368-1.367v-8.206c0.021-0.755-0.575-1.384-1.33-1.404
		c-0.756-0.021-1.385,0.575-1.404,1.331c-0.001,0.024-0.001,0.049,0,0.074v8.206C9.574,24.005,10.186,24.617,10.941,24.617z"/>
	<path d="M16.412,24.617c0.755,0,1.367-0.612,1.367-1.367v-8.206c0.021-0.755-0.575-1.384-1.33-1.404s-1.384,0.575-1.404,1.331
		c-0.001,0.024-0.001,0.049,0,0.074v8.206C15.045,24.005,15.657,24.617,16.412,24.617z"/>
</g>
</svg>
