<?xml version="1.0" encoding="utf-8"?>
<!DOCTYPE svg PUBLIC "-//W3C//DTD SVG 1.1//EN" "http://www.w3.org/Graphics/SVG/1.1/DTD/svg11.dtd">
<svg version="1.1" xmlns="http://www.w3.org/2000/svg" xmlns:xlink="http://www.w3.org/1999/xlink">
<defs>
	<symbol id="caption" width="100%" viewBox="0 0 40 40">
		<path class="path1" d="M40,0v33.723c0,0.575-0.678,0.882-1.107,0.503L0,0H40z" />
	</symbol>
	<symbol id="caption-outline" width="100%" viewBox="0 0 1000 20">
		<path d="M1000,0.5H120v16.86c0,0.29-0.34,0.44-0.56,0.25L100,0.5H0"/>
	</symbol>
	<symbol id="social-twitter" width="100%" viewBox="0 0 30 37">
		<path style="display:inline;" d="M3.3,25.4c2.3,1.5,5,2.3,7.8,2.3c9.5,0,14.9-8,14.5-15.2c1-0.7,1.9-1.6,2.6-2.6
			c-0.9,0.4-1.9,0.7-2.9,0.8c1.1-0.6,1.9-1.6,2.2-2.8c-1,0.6-2.1,1-3.2,1.2c-0.9-1-2.3-1.6-3.7-1.6c-3.3,0-5.7,3.1-5,6.3
			c-4.3-0.2-8-2.3-10.5-5.3c-1.3,2.3-0.7,5.3,1.6,6.8c-0.8,0-1.6-0.3-2.3-0.6c-0.1,2.4,1.6,4.6,4.1,5.1c-0.7,0.2-1.5,0.2-2.3,0.1
			c0.7,2,2.5,3.5,4.8,3.6C8.7,25,6,25.8,3.3,25.4z" />
	</symbol>
	<symbol id="social-facebook" width="100%" viewBox="0 0 30 37">
		<path style="display:inline;" d="M18.2,6.8c0.8,0,2.8,0,2.8,0V2.3c0,0-3,0-3.6,0c-3.9,0-5.6,1.7-5.6,4.9
			c0,2.8,0,3.5,0,3.5H9.1v4.4h2.7V28H17V15h3.6l0.4-4.3h-4c0,0,0-1.6,0-2.5C17,7.2,17.2,6.8,18.2,6.8z" />
	</symbol>
	<symbol id="social-instagram" width="100%" viewBox="0 0 30 37">
		<path d="M15.129,8.783c-3.438,0-6.222,2.787-6.222,6.223c0,3.438,2.787,6.223,6.222,6.223
			c3.438,0,6.222-2.787,6.222-6.223C21.352,11.567,18.565,8.783,15.129,8.783z M15.129,19.045c-2.232,0-4.039-1.809-4.039-4.039
			s1.808-4.039,4.039-4.039s4.039,1.809,4.039,4.039C19.169,17.236,17.361,19.045,15.129,19.045z"/>
		<path d="M20.125,2.962c-2.231-0.104-7.757-0.1-9.99,0C8.173,3.054,6.442,3.527,5.046,4.923
			c-2.332,2.332-2.034,5.475-2.034,10.083c0,4.717-0.263,7.786,2.034,10.083c2.341,2.341,5.529,2.034,10.083,2.034
			c4.672,0,6.285,0.003,7.937-0.637c2.246-0.872,3.941-2.88,4.107-6.486c0.105-2.231,0.099-7.756,0-9.989
			C26.974,5.754,24.689,3.172,20.125,2.962z M23.656,23.546c-1.529,1.529-3.649,1.393-8.556,1.393c-5.052,0-7.078,0.074-8.556-1.407
			c-1.703-1.695-1.395-4.416-1.395-8.541c0-5.583-0.573-9.604,5.03-9.891c1.288-0.045,1.667-0.061,4.907-0.061l0.045,0.03
			c5.385,0,9.609-0.563,9.863,5.038c0.058,1.278,0.071,1.662,0.071,4.897C25.064,19.999,25.159,22.036,23.656,23.546L23.656,23.546z"
		/>
		<circle cx="21.598" cy="8.538" r="1.454"/>
	</symbol>	
	<symbol id="social-rssfeed" width="100%" viewBox="0 0 30 37">
		<path d="M30,0H0v30h12.2l8,7c0.1,0.1,0.3,0,0.3-0.1V30H30V0z" />
		<path style="fill:#FFFFFF;" d="M3.7,2v5c5.3,0,10.2,2.1,13.9,5.8c3.7,3.7,5.8,8.7,5.8,14h5C28.3,13,17.3,2,3.7,2z" />
		<path style="fill:#FFFFFF;" d="M7,20c-1.8,0-3.3,1.5-3.3,3.3c0,1.8,1.5,3.3,3.3,3.3s3.3-1.5,3.3-3.3C10.4,21.5,8.9,20,7,20z" />
		<path style="fill:#FFFFFF;" d="M3.7,10.4v5c6.2,0.1,11.3,5.1,11.3,11.3h5C19.9,17.7,12.6,10.4,3.7,10.4z" />
	</symbol>
	<symbol id="social-youtube" width="100%" viewBox="0 0 30 37">
		<path d="M30,0H0v30h12.2l8,7c0.1,0.1,0.3,0,0.3-0.1V30H30V0z" />
		<path fill="#FFFFFF" d="M17.6,12.1c0.3,0,0.8-0.2,1.2-0.7v0.6h1.1V6.4h-1.1v4.3c-0.1,0.2-0.4,0.4-0.6,0.4C18,11.1,18,11,18,10.7
			V6.4h-1.1v4.8C16.9,11.7,17.1,12.1,17.6,12.1z" />
		<path fill="#FFFFFF" d="M12.9,10.6c0,1,0.5,1.5,1.6,1.5c0.9,0,1.5-0.6,1.5-1.5V7.8c0-0.9-0.7-1.5-1.5-1.5c-0.9,0-1.6,0.6-1.6,1.5
			V10.6z M14,7.9c0-0.3,0.1-0.5,0.4-0.5c0.3,0,0.5,0.2,0.5,0.5v2.6c0,0.3-0.2,0.5-0.4,0.5c-0.3,0-0.5-0.2-0.5-0.5V7.9z" />
		<polygon fill="#FFFFFF" points="10.4,12.1 11.6,12.1 11.6,8.9 13,4.3 11.8,4.3 11,7.4 10.2,4.3 9,4.3 10.4,8.9 		" />
		<path fill="#FFFFFF" d="M21.4,13.3H8.9c-1.3,0-2.4,1.1-2.4,2.4v6.1c0,1.3,1.1,2.4,2.4,2.4h12.5c1.3,0,2.4-1.1,2.4-2.4v-6.1
			C23.8,14.4,22.7,13.3,21.4,13.3z M10.5,22.5H9.4v-6.3H8.2v-1.1h3.5v1.1h-1.2V22.5z M14.6,22.5h-1v-0.6c-0.2,0.2-0.4,0.4-0.6,0.5
			c-0.5,0.3-1.3,0.3-1.3-0.8v-4.5h1v4.2c0,0.2,0.1,0.4,0.3,0.4c0.2,0,0.5-0.3,0.6-0.4v-4.1h1V22.5z M18.5,21.4
			c0,0.7-0.3,1.2-0.9,1.2c-0.4,0-0.7-0.1-1-0.5v0.4h-1v-7.3h1v2.4c0.2-0.3,0.5-0.5,0.9-0.5c0.7,0,1,0.6,1,1.4V21.4z M22.2,19.9h-1.9
			v1c0,0.4,0,0.8,0.4,0.8c0.4,0,0.5-0.3,0.5-0.8v-0.4h1V21c0,1-0.4,1.7-1.5,1.7c-1,0-1.5-0.7-1.5-1.7v-2.4c0-0.9,0.6-1.6,1.5-1.6
			c1,0,1.4,0.6,1.4,1.6V19.9z" />
		<path fill="#FFFFFF" d="M20.7,17.9c-0.4,0-0.5,0.3-0.5,0.6v0.5h0.9v-0.5C21.1,18.2,21.1,17.9,20.7,17.9z" />
		<path fill="#FFFFFF" d="M16.8,17.9c-0.1,0-0.1,0.1-0.2,0.2v3.4c0.1,0.1,0.2,0.2,0.2,0.2c0.2,0.1,0.4,0.1,0.5-0.1
			c0.1-0.1,0.1-0.2,0.1-0.4v-2.8c0-0.2,0-0.3-0.1-0.4C17.2,17.9,17,17.8,16.8,17.9z" />
	</symbol>
	<symbol id="search" width="100%" viewBox="0 0 35 35">
		<circle cx="15.19" cy="15.38" r="10.72" />
		<line x1="23.23" y1="23.42" x2="30.6" y2="30.79" />
	</symbol>
	<symbol id="navbar-close" width="100%" viewBox="0 0 30 30">
		<line x1="5" y1="5" x2="25" y2="25" />
		<line x1="5" y1="25" x2="25" y2="5" />
	</symbol>
	<symbol id="navbar-open" width="100%" viewBox="0 0 30 30">
		<line x1="4" y1="7" x2="26" y2="7" />
		<line x1="4" y1="15" x2="26" y2="15" />
		<line x1="4" y1="23" x2="26" y2="23" />
	</symbol>
	<symbol id="menu-chevron" width="100%" viewBox="0 0 30 30">
		<line x1="2" y1="2" x2="15" y2="15" />
		<line x1="15" y1="15" x2="28" y2="2" />
	</symbol>
	<symbol id="clock" width="100%" viewBox="0 0 128 128">
		<path d="M64,13c28.1,0,51,22.9,51,51s-22.9,51-51,51S13,92.1,13,64S35.9,13,64,13 M64,4C30.9,4,4,30.9,4,64
			s26.9,60,60,60s60-26.9,60-60S97.1,4,64,4L64,4z"/>
		<path d="M71.8,71.6H32.3c-2.8,0-5-2.2-5-5s2.2-5,5-5h29.5V32.1c0-2.8,2.2-5,5-5s5,2.2,5,5V71.6z"/>
	</symbol>
	<symbol id="callout" width="100%" viewBox="0 0 128 128">
		<polygon points="120,100 77,100 77,125.5 48,100 8,100 8,2 120,2"/>
	</symbol>
	<symbol id="arrow-pointer-left" width="100%" viewBox="0 0 32 32">
		<polyline points="16,31 1,16 16,1 "/>
	</symbol>
	<symbol id="arrow-pointer-right" width="100%" viewBox="0 0 32 32">
		<polyline points="16,31 31,16 16,1 "/>
	</symbol>
	<symbol id="logo-th" width="100%" viewBox="0 0 64 64">
		<polygon points="60.8,48.7 39.3,48.7 39.3,62.7 23.2,48.7 2.7,48.7 2.7,1.2 60.8,1.2 "/>
		<g>
			<path fill="#FFFFFF" d="M29.5,7.9l6.8,0v12c1.5-2,3.6-3.8,7-3.8c5.1,0,8.1,3.4,8.1,8.9v15.5l-6.8,0V27c0-3.2-1.5-4.9-4.1-4.9
				s-4.2,1.7-4.2,4.9v13.4l-6.8,0L29.5,7.9z"/>
			<path fill="#FFFFFF" d="M13.3,33.6V22.3l-2.8,0v-5.8l2.9,0v-6.1l6.7,0v6.1l5.6,0v5.8l-5.6,0v10.2c0,1.5,0.6,2.3,2.2,2.3
				c1.3,0,2.4-0.3,3.3-0.8v5.4c-1.4,0.8-3.1,1.4-5.4,1.4C16.1,40.7,13.3,39.2,13.3,33.6z"/>
		</g>
	</symbol>
	<symbol id="th-icon" width="100%" viewBox="0 0 128 128">
		<circle style="fill:#8DA252" cx="64" cy="64" r="62"/>
		<path style="fill:#FFFFFF" d="M21.4,87.8V52.6h-8.1v-7.7h8.1V27.3h8.7v17.6h18.5v7.7H30.1v34.1c0,7.1,4,9.7,9.8,9.7c2.9,0,5.4-0.6,8.5-2v7.5
			c-3.1,1.6-6.3,2.5-10.5,2.5C28.6,104.3,21.4,99.7,21.4,87.8z"/>
		<path style="fill:#FFFFFF" d="M55,20.8h8.7v34.2c3.8-6.3,9.9-11.4,20-11.4c14.1,0,22.4,9.5,22.4,23.4v36.3h-8.7V69.2
			c0-10.8-5.9-17.6-16.2-17.6c-10.1,0-17.5,7.3-17.5,18.3v33.5H55V20.8z"/>
	</symbol>
	<symbol id="th-icon-plus" width="100%" viewBox="0 0 128 128">
		<circle style="fill:#FFBE61" cx="64" cy="64" r="62"/>
		<path style="fill:#FFFFFF" d="M21.4,87.8V52.6h-8.1v-7.7h8.1V27.3h8.7v17.6h18.5v7.7H30.1v34.1c0,7.1,4,9.7,9.8,9.7c2.9,0,5.4-0.6,8.5-2v7.5
			c-3.1,1.6-6.3,2.5-10.5,2.5C28.6,104.3,21.4,99.7,21.4,87.8z"/>
		<path style="fill:#FFFFFF" d="M55,20.8h8.7V55c3.8-6.3,9.9-11.4,20-11.4c14.1,0,22.4,9.5,22.4,23.4v36.3h-8.7V69.2
			c0-10.8-5.9-17.6-16.2-17.6c-10.1,0-17.5,7.3-17.5,18.3v33.5H55V20.8z"/>
		<circle style="fill:#717273" cx="101.7" cy="24.2" r="20"/>
		<path style="fill:#FFFFFF" d="M99.3,26.6H91v-4.8h8.3v-8.2h4.9v8.2h8.3v4.8h-8.3v8.3h-4.9V26.6z"/>
	</symbol>
	<symbol id="th-icon-plus-inverse" width="100%" viewBox="0 0 128 128">
		<circle style="fill:#FFFFFF" cx="64" cy="64" r="62"/>
		<path style="fill:#FFBE61" d="M21.4,87.8V52.6h-8.1v-7.7h8.1V27.3h8.7v17.6h18.5v7.7H30.1v34.1c0,7.1,4,9.7,9.8,9.7c2.9,0,5.4-0.6,8.5-2v7.5
			c-3.1,1.6-6.3,2.5-10.5,2.5C28.6,104.3,21.4,99.7,21.4,87.8z"/>
		<path style="fill:#FFBE61" d="M55,20.8h8.7V55c3.8-6.3,9.9-11.4,20-11.4c14.1,0,22.4,9.5,22.4,23.4v36.3h-8.7V69.2
			c0-10.8-5.9-17.6-16.2-17.6c-10.1,0-17.5,7.3-17.5,18.3v33.5H55V20.8z"/>
		<circle style="fill:#717273" cx="101.7" cy="24.2" r="20"/>
		<path style="fill:#FFBE61" d="M99.3,26.6H91v-4.8h8.3v-8.2h4.9v8.2h8.3v4.8h-8.3v8.3h-4.9V26.6z"/>
	</symbol>
	<symbol id="icon-checkmark" width="100%" viewBox="0 0 64 64">
		<path d="M16,58.1c0.8,0.2,5.1-1.5,5.1-1.5c0.6-0.2,1.3-0.9,1.6-1.5c0,0,7.1-16.4,14-24.7C50.1,14.5,61.9,7,61.9,7
			c0.6-0.4,0.8-0.8,0.5-0.9c-0.3-0.2-1-0.1-1.7,0.1c0,0-14.2,5-25.5,15.8c-9.9,9.4-15.1,19.4-15.1,19.4c-0.3,0.6-0.8,0.6-1.2,0
			c0,0-3.9-6.3-6.8-7.4s-5.8-1.4-7.7-0.5s-3,2.3-3,2.8c0,0.5,5.9,4.8,8.6,9.4C15,54.1,14.5,57.7,16,58.1z"/>
	</symbol>
	<symbol id="icon-plus" width="100%" viewBox="0 0 64 64">
		<path d="M32,1C14.9,1,1,14.9,1,32c0,17.1,13.9,31,31,31s31-13.9,31-31C63,14.9,49.1,1,32,1z M50.8,37.2H37.3v13.3H26.8V37.2H13.2
			V26.8h13.5V13.5h10.6v13.4h13.5V37.2z"/>
	</symbol>
	<symbol id="icon-talkgreen" width="100%" viewBox="0 0 64 64">
		<path d="M47.1,1c0,0-5.3,4.7-10.9,6.7C-3.8,22,12.4,51.7,13,51.8c0,0,2.3-4,5.4-6.3c19.8-14.6,24-31.3,24-31.3s-4.6,20.2-22.2,32.7
			c-3.9,2.8-6.6,9.3-7.8,16.1c0,0,2.8-0.9,3.9-1.2c0.5-3,1.4-5.9,3-8.5c24.6,2.9,32.8-16.9,33.9-23.8C55.8,13.2,47.1,1,47.1,1z"/>
	</symbol>
	<!-- variations for forums using phpBB TOPIC_IMG_STYLE variables -->
	<!-- topic_read* -->
	<symbol id="callout-topic_moved" width="100%" viewBox="0 0 128 128">
		<path d="M8,2v98h40L77,125.5V100h43V2H8z M113.5,85.5h-4V69.4L85.4,93.4l-2.8-2.8l24.1-24.1H90.5v-4h23V85.5z"/>
	</symbol>
	<symbol id="callout-topic_read_hot_mine" width="100%" viewBox="0 0 128 128">
		<path d="M100,87c-3.4,0-6.4-5.2-6.5-10c-0.2-5.6,2.7-11.3,2.7-11.3c1,9.5,6.8,9,7.9,14.2C105,83.9,103.3,87,100,87z"/>
		<path d="M8,2v98h40L77,125.5V100h43V2H8z M100.6,93.7c-6.4,0-14.6-4.8-12.4-22.7c1.4-11.3,18.1-23.6,18.1-23.6s-3,4.1-3.8,14.1
			c-0.8,10.5,9.4,9.8,9.4,19.1C111.9,86.3,107,93.7,100.6,93.7z M106.4,24.3l3.3,11.8l-10.2-6.8L89.4,36l3.3-11.8l-9.6-7.6l12.2-0.5
			l4.2-11.4l4.2,11.4l12.2,0.5L106.4,24.3z"/>
	</symbol>
	<symbol id="callout-topic_read_hot" width="100%" viewBox="0 0 128 128">
		<path d="M8,2v98h40L77,125.5V100h43V2H8z M100.6,93.7c-6.4,0-14.6-4.8-12.4-22.7c1.4-11.3,18.1-23.6,18.1-23.6s-3,4.1-3.8,14.1
			c-0.8,10.5,9.4,9.8,9.4,19.1C111.9,86.3,107,93.7,100.6,93.7z"/>
		<path d="M100,87c-3.4,0-6.4-5.2-6.5-10c-0.2-5.6,2.7-11.3,2.7-11.3c1,9.5,6.8,9,7.9,14.2C105,83.9,103.3,87,100,87z"/>
	</symbol>
	<symbol id="callout-topic_read_mine" width="100%" viewBox="0 0 128 128">
		<path d="M8,2v98h40L77,125.5V100h43V2H8z M109.7,36l-10.2-6.8L89.4,36l3.3-11.8l-9.6-7.6l12.2-0.5l4.2-11.4l4.2,11.4l12.2,0.5
			l-9.6,7.6L109.7,36z"/>
	</symbol>
	<symbol id="callout-topic_read_locked_mine" width="100%" viewBox="0 0 128 128">
		<g>
			<path d="M96.7,61.3c-4.2,0-7.7,3.4-7.7,7.7h15.4C104.4,64.8,101,61.3,96.7,61.3z"/>
			<path d="M8,2v98h40L77,125.5V100h43V2H8z M112,92.3H81.4V69H83c0-7.5,6.2-13.7,13.7-13.7s13.7,6.1,13.7,13.7h1.6V92.3z
				 M106.4,24.3l3.3,11.8l-10.2-6.8L89.4,36l3.3-11.8l-9.6-7.6l12.2-0.5l4.2-11.4l4.2,11.4l12.2,0.5L106.4,24.3z"/>
		</g>
		<g>
			<path d="M96.7,80c2.1,0,3.9-1.7,3.9-3.9c0-2.1-1.7-3.9-3.9-3.9c-2.1,0-3.9,1.7-3.9,3.9C92.8,78.2,94.6,80,96.7,80z"/>
			<polygon points="98.4,80 95,80 92.4,90.3 101,90.3 		"/>
		</g>
	</symbol>
	<symbol id="callout-topic_read_locked" width="100%" viewBox="0 0 128 128">
		<g>
			<path d="M8,2v98h40L77,125.5V100h43V2H8z M112,92.3H81.4V69H83c0-7.5,6.2-13.7,13.7-13.7s13.7,6.1,13.7,13.7h1.6V92.3z"/>
			<path d="M96.7,61.3c-4.2,0-7.7,3.4-7.7,7.7h15.4C104.4,64.8,101,61.3,96.7,61.3z"/>
		</g>
		<g>
			<polygon points="98.4,80 95,80 92.4,90.3 101,90.3"/>
			<path d="M96.7,80c2.1,0,3.9-1.7,3.9-3.9c0-2.1-1.7-3.9-3.9-3.9c-2.1,0-3.9,1.7-3.9,3.9C92.8,78.2,94.6,80,96.7,80z"/>
		</g>
	</symbol>
	<symbol id="callout-topic_read" width="100%" viewBox="0 0 128 128">
		<polygon points="120,100 77,100 77,125.5 48,100 8,100 8,2 120,2"/>
	</symbol>
	<!-- topic_unread* -->
	<symbol id="callout-topic_unread" width="100%" viewBox="0 0 128 128">
		<path d="M8,2v98h40L77,125.5V100h43V2H8z M47,64h-5.3l-4.5-11.3c-1-2.5-2.4-6.3-3-8.9H34c0.2,3,0.4,7.6,0.4,13.6V64h-5.1V34.2h5.3
			l4.6,11.7c0.9,2.3,2.4,6.1,3.2,8.7h0.1c-0.2-3.1-0.6-8.3-0.6-13.8v-6.6H47V64z M68.2,64H54.7V34.2h12.9v5h-7.1v6.8h6.8v4.8h-6.8V59
			h7.7V64z M96.5,64h-6l-1.8-9.7c-0.5-2.8-0.9-6.2-1.3-9.8h-0.1c-0.5,3.6-1,6.9-1.6,9.8l-2,9.7H78L73,34.2h6l1.4,11.9
			c0.4,3.4,0.7,6.8,1,10.5h0.1c0.4-3.7,1.1-6.9,1.7-10.5l2.1-11.8h4.7L92,46c0.5,3.3,1,6.7,1.4,10.6h0.1c0.4-3.9,0.7-7.1,1.1-10.5
			l1.5-11.8h5.7L96.5,64z"/>
	</symbol>
	<symbol id="callout-topic_unread_mine" width="100%" viewBox="0 0 128 128">
		<path d="M8,2v98h40L77,125.5V100h43V2H8z M47,64h-5.3l-4.5-11.3c-1-2.5-2.4-6.3-3-8.9H34c0.2,3,0.4,7.6,0.4,13.6V64h-5.1V34.2h5.3
			l4.6,11.7c0.9,2.3,2.4,6.1,3.2,8.7h0.1c-0.2-3.1-0.6-8.3-0.6-13.8v-6.6H47V64z M68.2,64H54.7V34.2h12.9v5h-7.1v6.8h6.8v4.8h-6.8V59
			h7.7V64z M109.7,36l-10.2-6.8l-9.3,6.2L92,46c0.5,3.3,1,6.7,1.4,10.6h0.1c0.4-3.9,0.7-7.1,1.1-10.5l1.5-11.8h5.7L96.5,64h-6
			l-1.8-9.7c-0.5-2.8-0.9-6.2-1.3-9.8h-0.1c-0.5,3.6-1,6.9-1.6,9.8l-2,9.7H78L73,34.2h6l1.4,11.9c0.4,3.4,0.7,6.8,1,10.5h0.1
			c0.4-3.7,1.1-6.9,1.7-10.5l2.1-11.8h4.5l2.8-10l-9.6-7.6l12.2-0.5l4.2-11.4l4.2,11.4l12.2,0.5l-9.6,7.6L109.7,36z"/>
	</symbol>
	<symbol id="callout-topic_unread_locked" width="100%" viewBox="0 0 128 128">
		<g>
			<polygon points="98.4,80 95,80 92.4,90.3 101,90.3"/>
			<path d="M96.7,80c2.1,0,3.9-1.7,3.9-3.9c0-2.1-1.7-3.9-3.9-3.9c-2.1,0-3.9,1.7-3.9,3.9C92.8,78.2,94.6,80,96.7,80z"/>
		</g>
		<path d="M8,2v98h40L77,125.5V100h43V2H8z M47,64h-5.3l-4.5-11.3c-1-2.5-2.4-6.3-3-8.9H34c0.2,3,0.4,7.6,0.4,13.6V64h-5.1V34.2h5.3
			l4.6,11.7c0.9,2.3,2.4,6.1,3.2,8.7h0.1c-0.2-3.1-0.6-8.3-0.6-13.8v-6.6H47V64z M68.2,64H54.7V34.2h12.9v5h-7.1v6.8h6.8v4.8h-6.8V59
			h7.7V64z M112,92.3H81.4V69H83c0-4.8,2.6-9.1,6.4-11.5l-0.6-3.2c-0.5-2.8-0.9-6.2-1.3-9.8h-0.1c-0.5,3.6-1,6.9-1.6,9.8l-2,9.7H78
			L73,34.2h6l1.4,11.9c0.4,3.4,0.7,6.8,1,10.5h0.1c0.4-3.7,1.1-6.9,1.7-10.5l2.1-11.8h4.7L92,46c0.5,3.1,1,6.2,1.3,9.8
			c0.1,0,0.2,0,0.3-0.1c0.3-3.5,0.7-6.5,1-9.7l1.5-11.8h5.7l-3.7,21.2c6.9,0.7,12.3,6.5,12.4,13.6h1.6V92.3z"/>
		<path d="M96.7,61.3c-4.2,0-7.7,3.4-7.7,7.7h15.4C104.4,64.8,101,61.3,96.7,61.3z"/>
	</symbol>
	<symbol id="callout-topic_unread_locked_mine" width="100%" viewBox="0 0 128 128">
		<g>
			<polygon points="98.4,80 95,80 92.4,90.3 101,90.3"/>
			<path d="M96.7,80c2.1,0,3.9-1.7,3.9-3.9c0-2.1-1.7-3.9-3.9-3.9c-2.1,0-3.9,1.7-3.9,3.9C92.8,78.2,94.6,80,96.7,80z"/>
		</g>
		<path d="M96.7,61.3c-4.2,0-7.7,3.4-7.7,7.7h15.4C104.4,64.8,101,61.3,96.7,61.3z"/>
		<path d="M8,2v98h40L77,125.5V100h43V2H8z M47,64h-5.3l-4.5-11.3c-1-2.5-2.4-6.3-3-8.9H34c0.2,3,0.4,7.6,0.4,13.6V64h-5.1V34.2h5.3
			l4.6,11.7c0.9,2.3,2.4,6.1,3.2,8.7h0.1c-0.2-3.1-0.6-8.3-0.6-13.8v-6.6H47V64z M68.2,64H54.7V34.2h12.9v5h-7.1v6.8h6.8v4.8h-6.8V59
			h7.7V64z M109.7,36l-10.2-6.8l-9.3,6.2L92,46c0.5,3.1,1,6.2,1.3,9.8c0.1,0,0.2,0,0.3-0.1c0.3-3.5,0.7-6.5,1-9.7l1.5-11.8h5.7
			l-3.7,21.2c6.9,0.7,12.3,6.5,12.4,13.6h1.6v23.3H81.4V69H83c0-4.8,2.6-9.1,6.4-11.5l-0.6-3.2c-0.5-2.8-0.9-6.2-1.3-9.8h-0.1
			c-0.5,3.6-1,6.9-1.6,9.8l-2,9.7H78L73,34.2h6l1.4,11.9c0.4,3.4,0.7,6.8,1,10.5h0.1c0.4-3.7,1.1-6.9,1.7-10.5l2.1-11.8h4.5l2.8-10
			l-9.6-7.6l12.2-0.5l4.2-11.4l4.2,11.4l12.2,0.5l-9.6,7.6L109.7,36z"/>
	</symbol>
	<symbol id="callout-topic_unread_hot" width="100%" viewBox="0 0 128 128">
		<path d="M100,87c-3.4,0-6.4-5.2-6.5-10c-0.2-5.6,2.7-11.3,2.7-11.3c1,9.5,6.8,9,7.9,14.2C105,83.9,103.3,87,100,87z"/>
		<path d="M8,2v98h40L77,125.5V100h43V2H8z M47,64h-5.3l-4.5-11.3c-1-2.5-2.4-6.3-3-8.9H34c0.2,3,0.4,7.6,0.4,13.6V64h-5.1V34.2h5.3
			l4.6,11.7c0.9,2.3,2.4,6.1,3.2,8.7h0.1c-0.2-3.1-0.6-8.3-0.6-13.8v-6.6H47V64z M68.2,64H54.7V34.2h12.9v5h-7.1v6.8h6.8v4.8h-6.8V59
			h7.7V64z M100.6,93.7c-6.4,0-14.6-4.8-12.4-22.7c0.3-2.3,1.3-4.7,2.6-7h-0.3l-1.8-9.7c-0.5-2.8-0.9-6.2-1.3-9.8h-0.1
			c-0.5,3.6-1,6.9-1.6,9.8l-2,9.7H78L73,34.2h6l1.4,11.9c0.4,3.4,0.7,6.8,1,10.5h0.1c0.4-3.7,1.1-6.9,1.7-10.5l2.1-11.8h4.7L92,46
			c0.5,3.3,1,6.7,1.4,10.6h0.1c0.4-3.9,0.7-7.1,1.1-10.5l1.5-11.8h5.7l-3.6,20.4c4.2-4.3,8.1-7.2,8.1-7.2s-3,4.1-3.8,14.1
			c-0.8,10.5,9.4,9.8,9.4,19.1C111.9,86.3,107,93.7,100.6,93.7z"/>
	</symbol>
	<symbol id="callout-topic_unread_hot_mine" width="100%" viewBox="0 0 128 128">
		<path d="M100,87c-3.4,0-6.4-5.2-6.5-10c-0.2-5.6,2.7-11.3,2.7-11.3c1,9.5,6.8,9,7.9,14.2C105,83.9,103.3,87,100,87z"/>
		<path d="M8,2v98h40L77,125.5V100h43V2H8z M47,64h-5.3l-4.5-11.3c-1-2.5-2.4-6.3-3-8.9H34c0.2,3,0.4,7.6,0.4,13.6V64h-5.1V34.2h5.3
			l4.6,11.7c0.9,2.3,2.4,6.1,3.2,8.7h0.1c-0.2-3.1-0.6-8.3-0.6-13.8v-6.6H47V64z M68.2,64H54.7V34.2h12.9v5h-7.1v6.8h6.8v4.8h-6.8V59
			h7.7V64z M109.7,36l-10.2-6.8l-9.3,6.2L92,46c0.5,3.3,1,6.7,1.4,10.6h0.1c0.4-3.9,0.7-7.1,1.1-10.5l1.5-11.8h5.7l-3.6,20.4
			c4.2-4.3,8.1-7.2,8.1-7.2s-3,4.1-3.8,14.1c-0.8,10.5,9.4,9.8,9.4,19.1c0,5.6-4.9,13-11.3,13c-6.4,0-14.6-4.8-12.4-22.7
			c0.3-2.3,1.3-4.7,2.6-7h-0.3l-1.8-9.7c-0.5-2.8-0.9-6.2-1.3-9.8h-0.1c-0.5,3.6-1,6.9-1.6,9.8l-2,9.7H78L73,34.2h6l1.4,11.9
			c0.4,3.4,0.7,6.8,1,10.5h0.1c0.4-3.7,1.1-6.9,1.7-10.5l2.1-11.8h4.5l2.8-10l-9.6-7.6l12.2-0.5l4.2-11.4l4.2,11.4l12.2,0.5l-9.6,7.6
			L109.7,36z"/>
	</symbol>
	<!-- forum_read* -->
	<symbol id="callout-forum_link" width="100%" viewBox="0 0 128 128">
		<path d="M8,2v98h40L77,125.5V100h43V2H8z M113.5,85.5h-4V69.4L85.4,93.4l-2.8-2.8l24.1-24.1H90.5v-4h23V85.5z"/>
	</symbol>
	<symbol id="callout-forum_read_locked_mine" width="100%" viewBox="0 0 128 128">
		<g>
			<path d="M96.7,61.3c-4.2,0-7.7,3.4-7.7,7.7h15.4C104.4,64.8,101,61.3,96.7,61.3z"/>
			<path d="M8,2v98h40L77,125.5V100h43V2H8z M112,92.3H81.4V69H83c0-7.5,6.2-13.7,13.7-13.7s13.7,6.1,13.7,13.7h1.6V92.3z
				 M106.4,24.3l3.3,11.8l-10.2-6.8L89.4,36l3.3-11.8l-9.6-7.6l12.2-0.5l4.2-11.4l4.2,11.4l12.2,0.5L106.4,24.3z"/>
		</g>
		<g>
			<path d="M96.7,80c2.1,0,3.9-1.7,3.9-3.9c0-2.1-1.7-3.9-3.9-3.9c-2.1,0-3.9,1.7-3.9,3.9C92.8,78.2,94.6,80,96.7,80z"/>
			<polygon points="98.4,80 95,80 92.4,90.3 101,90.3 		"/>
		</g>
	</symbol>
	<symbol id="callout-forum_read_locked" width="100%" viewBox="0 0 128 128">
		<g>
			<path d="M8,2v98h40L77,125.5V100h43V2H8z M112,92.3H81.4V69H83c0-7.5,6.2-13.7,13.7-13.7s13.7,6.1,13.7,13.7h1.6V92.3z"/>
			<path d="M96.7,61.3c-4.2,0-7.7,3.4-7.7,7.7h15.4C104.4,64.8,101,61.3,96.7,61.3z"/>
		</g>
		<g>
			<polygon points="98.4,80 95,80 92.4,90.3 101,90.3"/>
			<path d="M96.7,80c2.1,0,3.9-1.7,3.9-3.9c0-2.1-1.7-3.9-3.9-3.9c-2.1,0-3.9,1.7-3.9,3.9C92.8,78.2,94.6,80,96.7,80z"/>
		</g>
	</symbol>
	<symbol id="callout-forum_read_mine" width="100%" viewBox="0 0 128 128">
		<path d="M8,2v98h40L77,125.5V100h43V2H8z M109.7,36l-10.2-6.8L89.4,36l3.3-11.8l-9.6-7.6l12.2-0.5l4.2-11.4l4.2,11.4l12.2,0.5
			l-9.6,7.6L109.7,36z"/>
	</symbol>

	<symbol id="callout-forum_read_subforum" width="100%" viewBox="0 0 128 128">
		<polygon points="120,100 77,100 77,125.5 48,100 8,100 8,2 120,2"/>
	</symbol>

	<symbol id="callout-forum_read" width="100%" viewBox="0 0 128 128">
		<polygon points="120,100 77,100 77,125.5 48,100 8,100 8,2 120,2"/>
	</symbol>
	<!-- forum_unread* -->
	<symbol id="callout-forum_unread_locked_mine" width="100%" viewBox="0 0 128 128">
		<g>
			<polygon points="98.4,80 95,80 92.4,90.3 101,90.3"/>
			<path d="M96.7,80c2.1,0,3.9-1.7,3.9-3.9c0-2.1-1.7-3.9-3.9-3.9c-2.1,0-3.9,1.7-3.9,3.9C92.8,78.2,94.6,80,96.7,80z"/>
		</g>
		<path d="M96.7,61.3c-4.2,0-7.7,3.4-7.7,7.7h15.4C104.4,64.8,101,61.3,96.7,61.3z"/>
		<path d="M8,2v98h40L77,125.5V100h43V2H8z M47,64h-5.3l-4.5-11.3c-1-2.5-2.4-6.3-3-8.9H34c0.2,3,0.4,7.6,0.4,13.6V64h-5.1V34.2h5.3
			l4.6,11.7c0.9,2.3,2.4,6.1,3.2,8.7h0.1c-0.2-3.1-0.6-8.3-0.6-13.8v-6.6H47V64z M68.2,64H54.7V34.2h12.9v5h-7.1v6.8h6.8v4.8h-6.8V59
			h7.7V64z M109.7,36l-10.2-6.8l-9.3,6.2L92,46c0.5,3.1,1,6.2,1.3,9.8c0.1,0,0.2,0,0.3-0.1c0.3-3.5,0.7-6.5,1-9.7l1.5-11.8h5.7
			l-3.7,21.2c6.9,0.7,12.3,6.5,12.4,13.6h1.6v23.3H81.4V69H83c0-4.8,2.6-9.1,6.4-11.5l-0.6-3.2c-0.5-2.8-0.9-6.2-1.3-9.8h-0.1
			c-0.5,3.6-1,6.9-1.6,9.8l-2,9.7H78L73,34.2h6l1.4,11.9c0.4,3.4,0.7,6.8,1,10.5h0.1c0.4-3.7,1.1-6.9,1.7-10.5l2.1-11.8h4.5l2.8-10
			l-9.6-7.6l12.2-0.5l4.2-11.4l4.2,11.4l12.2,0.5l-9.6,7.6L109.7,36z"/>
	</symbol>
	<symbol id="callout-forum_unread_locked" width="100%" viewBox="0 0 128 128">
		<g>
			<polygon points="98.4,80 95,80 92.4,90.3 101,90.3"/>
			<path d="M96.7,80c2.1,0,3.9-1.7,3.9-3.9c0-2.1-1.7-3.9-3.9-3.9c-2.1,0-3.9,1.7-3.9,3.9C92.8,78.2,94.6,80,96.7,80z"/>
		</g>
		<path d="M8,2v98h40L77,125.5V100h43V2H8z M47,64h-5.3l-4.5-11.3c-1-2.5-2.4-6.3-3-8.9H34c0.2,3,0.4,7.6,0.4,13.6V64h-5.1V34.2h5.3
			l4.6,11.7c0.9,2.3,2.4,6.1,3.2,8.7h0.1c-0.2-3.1-0.6-8.3-0.6-13.8v-6.6H47V64z M68.2,64H54.7V34.2h12.9v5h-7.1v6.8h6.8v4.8h-6.8V59
			h7.7V64z M112,92.3H81.4V69H83c0-4.8,2.6-9.1,6.4-11.5l-0.6-3.2c-0.5-2.8-0.9-6.2-1.3-9.8h-0.1c-0.5,3.6-1,6.9-1.6,9.8l-2,9.7H78
			L73,34.2h6l1.4,11.9c0.4,3.4,0.7,6.8,1,10.5h0.1c0.4-3.7,1.1-6.9,1.7-10.5l2.1-11.8h4.7L92,46c0.5,3.1,1,6.2,1.3,9.8
			c0.1,0,0.2,0,0.3-0.1c0.3-3.5,0.7-6.5,1-9.7l1.5-11.8h5.7l-3.7,21.2c6.9,0.7,12.3,6.5,12.4,13.6h1.6V92.3z"/>
		<path d="M96.7,61.3c-4.2,0-7.7,3.4-7.7,7.7h15.4C104.4,64.8,101,61.3,96.7,61.3z"/>
	</symbol>
	<symbol id="callout-forum_unread_mine" width="100%" viewBox="0 0 128 128">
		<path d="M8,2v98h40L77,125.5V100h43V2H8z M47,64h-5.3l-4.5-11.3c-1-2.5-2.4-6.3-3-8.9H34c0.2,3,0.4,7.6,0.4,13.6V64h-5.1V34.2h5.3
			l4.6,11.7c0.9,2.3,2.4,6.1,3.2,8.7h0.1c-0.2-3.1-0.6-8.3-0.6-13.8v-6.6H47V64z M68.2,64H54.7V34.2h12.9v5h-7.1v6.8h6.8v4.8h-6.8V59
			h7.7V64z M109.7,36l-10.2-6.8l-9.3,6.2L92,46c0.5,3.3,1,6.7,1.4,10.6h0.1c0.4-3.9,0.7-7.1,1.1-10.5l1.5-11.8h5.7L96.5,64h-6
			l-1.8-9.7c-0.5-2.8-0.9-6.2-1.3-9.8h-0.1c-0.5,3.6-1,6.9-1.6,9.8l-2,9.7H78L73,34.2h6l1.4,11.9c0.4,3.4,0.7,6.8,1,10.5h0.1
			c0.4-3.7,1.1-6.9,1.7-10.5l2.1-11.8h4.5l2.8-10l-9.6-7.6l12.2-0.5l4.2-11.4l4.2,11.4l12.2,0.5l-9.6,7.6L109.7,36z"/>
	</symbol>
	<symbol id="callout-forum_unread_subforum" width="100%" viewBox="0 0 128 128">
		<g>
			<path d="M8,2v98h40L77,125.5V100h43V2H8z M47,64h-5.3l-4.5-11.3c-1-2.5-2.4-6.3-3-8.9H34c0.2,3,0.4,7.6,0.4,13.6V64h-5.1V34.2h5.3
				l4.6,11.7c0.9,2.3,2.4,6.1,3.2,8.7h0.1c-0.2-3.1-0.6-8.3-0.6-13.8v-6.6H47V64z M68.2,64H54.7V34.2h12.9v5h-7.1v6.8h6.8v4.8h-6.8
				V59h7.7V64z M78,64L73,34.2h6l1.4,11.9c0.4,3.4,0.7,6.8,1,10.5h0.1c0.4-3.7,1.1-6.9,1.7-10.5l2.1-11.8h4.7L92,46
				c0.5,3.3,1,6.7,1.4,10.6h0.1c0.4-3.9,0.7-7.1,1.1-10.5l1.5-11.8h5.7L96.5,64h-6l-1.8-9.7c-0.5-2.8-0.9-6.2-1.3-9.8h-0.1
				c-0.5,3.6-1,6.9-1.6,9.8l-2,9.7H78z M112.8,94.4H85V66.6h27.9V94.4z"/>
			<rect x="100.9" y="82.5" width="8" height="8"/>
			<polygon points="96.9,78.5 108.9,78.5 108.9,70.6 89,70.6 89,90.5 96.9,90.5 		"/>
		</g>
	</symbol>
	<symbol id="callout-forum_unread" width="100%" viewBox="0 0 128 128">
		<path d="M8,2v98h40L77,125.5V100h43V2H8z M47,64h-5.3l-4.5-11.3c-1-2.5-2.4-6.3-3-8.9H34c0.2,3,0.4,7.6,0.4,13.6V64h-5.1V34.2h5.3
			l4.6,11.7c0.9,2.3,2.4,6.1,3.2,8.7h0.1c-0.2-3.1-0.6-8.3-0.6-13.8v-6.6H47V64z M68.2,64H54.7V34.2h12.9v5h-7.1v6.8h6.8v4.8h-6.8V59
			h7.7V64z M96.5,64h-6l-1.8-9.7c-0.5-2.8-0.9-6.2-1.3-9.8h-0.1c-0.5,3.6-1,6.9-1.6,9.8l-2,9.7H78L73,34.2h6l1.4,11.9
			c0.4,3.4,0.7,6.8,1,10.5h0.1c0.4-3.7,1.1-6.9,1.7-10.5l2.1-11.8h4.7L92,46c0.5,3.3,1,6.7,1.4,10.6h0.1c0.4-3.9,0.7-7.1,1.1-10.5
			l1.5-11.8h5.7L96.5,64z"/>
	</symbol>
	<!-- global_read* -->
	<symbol id="callout-global_read" width="100%" viewBox="0 0 128 128">
		<path d="M8,2v98h40L77,125.5V100h43V2H8z M68.8,75.8c-2.5,2.4-5.1,3.6-7.9,3.6c-1.6,0-3-0.5-4.3-1.5c-1.3-1-1.9-2.5-1.9-4.5
			c0-0.7,0.2-1.8,0.5-3.3c0.2-0.9,0.5-2,0.9-3.5l5.3-19.5c0.1-0.2,0.1-0.5,0.1-0.7c0-0.2,0.1-0.4,0.1-0.6c0-1.2-0.4-1.9-1.1-2.2
			c-0.7-0.3-2.1-0.5-4-0.5v-2.3c1.6-0.1,4-0.3,7.1-0.7c3.1-0.4,5.3-0.7,6.6-0.9l3.7-0.7l-6.7,24.7c-0.6,2.1-0.9,3.6-1.1,4.4
			c-0.5,2.1-0.8,3.4-0.8,4.1c0,0.6,0.1,1,0.4,1.2c0.3,0.2,0.6,0.3,0.9,0.3c0.9,0,2-0.7,3.3-2.2c1.3-1.5,2.4-3.1,3.4-4.7l1.9,1.2
			C72.5,71.6,70.3,74.4,68.8,75.8z M75.7,29.1c-1.1,1.1-2.5,1.7-4.1,1.7c-1.6,0-3-0.6-4.1-1.7c-1.1-1.1-1.7-2.5-1.7-4.1
			s0.6-3,1.7-4.1c1.1-1.1,2.5-1.7,4.1-1.7c1.6,0,3,0.6,4.1,1.7c1.1,1.1,1.7,2.5,1.7,4.1S76.8,28,75.7,29.1z"/>
	</symbol>
	<symbol id="callout-global_read_locked" width="100%" viewBox="0 0 128 128">
		<g>
			<path d="M8,2v98h40L77,125.5V100h43V2H8z M68.8,75.8c-2.5,2.4-5.1,3.6-7.9,3.6c-1.6,0-3-0.5-4.3-1.5c-1.3-1-1.9-2.5-1.9-4.5
				c0-0.7,0.2-1.8,0.5-3.3c0.2-0.9,0.5-2,0.9-3.5l5.3-19.5c0.1-0.2,0.1-0.5,0.1-0.7c0-0.2,0.1-0.4,0.1-0.6c0-1.2-0.4-1.9-1.1-2.2
				c-0.7-0.3-2.1-0.5-4-0.5v-2.3c1.6-0.1,4-0.3,7.1-0.7c3.1-0.4,5.3-0.7,6.6-0.9l3.7-0.7l-6.7,24.7c-0.6,2.1-0.9,3.6-1.1,4.4
				c-0.5,2.1-0.8,3.4-0.8,4.1c0,0.6,0.1,1,0.4,1.2c0.3,0.2,0.6,0.3,0.9,0.3c0.9,0,2-0.7,3.3-2.2c1.3-1.5,2.4-3.1,3.4-4.7l1.9,1.2
				C72.5,71.6,70.3,74.4,68.8,75.8z M75.7,29.1c-1.1,1.1-2.5,1.7-4.1,1.7c-1.6,0-3-0.6-4.1-1.7c-1.1-1.1-1.7-2.5-1.7-4.1
				s0.6-3,1.7-4.1c1.1-1.1,2.5-1.7,4.1-1.7c1.6,0,3,0.6,4.1,1.7c1.1,1.1,1.7,2.5,1.7,4.1S76.8,28,75.7,29.1z M112,92.3H81.4V69H83
				c0-7.5,6.2-13.7,13.7-13.7s13.7,6.1,13.7,13.7h1.6V92.3z"/>
		</g>
		<g>
			<path d="M96.7,80c2.1,0,3.9-1.7,3.9-3.9c0-2.1-1.7-3.9-3.9-3.9c-2.1,0-3.9,1.7-3.9,3.9C92.8,78.2,94.6,80,96.7,80z"/>
			<polygon points="98.4,80 95,80 92.4,90.3 101,90.3"/>
		</g>
		<path d="M96.7,61.3c-4.2,0-7.7,3.4-7.7,7.7h15.4C104.4,64.8,101,61.3,96.7,61.3z"/>
	</symbol>
	<symbol id="callout-global_read_locked_mine" width="100%" viewBox="0 0 128 128">
		<g>
			<path d="M96.7,80c2.1,0,3.9-1.7,3.9-3.9c0-2.1-1.7-3.9-3.9-3.9c-2.1,0-3.9,1.7-3.9,3.9C92.8,78.2,94.6,80,96.7,80z"/>
			<polygon points="98.4,80 95,80 92.4,90.3 101,90.3"/>
		</g>
		<path d="M96.7,61.3c-4.2,0-7.7,3.4-7.7,7.7h15.4C104.4,64.8,101,61.3,96.7,61.3z"/>
		<path d="M8,2v98h40L77,125.5V100h43V2H8z M68.8,75.8c-2.5,2.4-5.1,3.6-7.9,3.6c-1.6,0-3-0.5-4.3-1.5c-1.3-1-1.9-2.5-1.9-4.5
			c0-0.7,0.2-1.8,0.5-3.3c0.2-0.9,0.5-2,0.9-3.5l5.3-19.5c0.1-0.2,0.1-0.5,0.1-0.7c0-0.2,0.1-0.4,0.1-0.6c0-1.2-0.4-1.9-1.1-2.2
			c-0.7-0.3-2.1-0.5-4-0.5v-2.3c1.6-0.1,4-0.3,7.1-0.7c3.1-0.4,5.3-0.7,6.6-0.9l3.7-0.7l-6.7,24.7c-0.6,2.1-0.9,3.6-1.1,4.4
			c-0.5,2.1-0.8,3.4-0.8,4.1c0,0.6,0.1,1,0.4,1.2c0.3,0.2,0.6,0.3,0.9,0.3c0.9,0,2-0.7,3.3-2.2c1.3-1.5,2.4-3.1,3.4-4.7l1.9,1.2
			C72.5,71.6,70.3,74.4,68.8,75.8z M75.7,29.1c-1.1,1.1-2.5,1.7-4.1,1.7c-1.6,0-3-0.6-4.1-1.7c-1.1-1.1-1.7-2.5-1.7-4.1
			s0.6-3,1.7-4.1c1.1-1.1,2.5-1.7,4.1-1.7c1.6,0,3,0.6,4.1,1.7c1.1,1.1,1.7,2.5,1.7,4.1S76.8,28,75.7,29.1z M112,92.3H81.4V69H83
			c0-7.5,6.2-13.7,13.7-13.7s13.7,6.1,13.7,13.7h1.6V92.3z M106.4,24.3l3.3,11.8l-10.2-6.8L89.4,36l3.3-11.8l-9.6-7.6l12.2-0.5
			l4.2-11.4l4.2,11.4l12.2,0.5L106.4,24.3z"/>
	</symbol>
	<symbol id="callout-global_read_mine" width="100%" viewBox="0 0 128 128">
		<path d="M96.7,61.3c-4.2,0-7.7,3.4-7.7,7.7h15.4C104.4,64.8,101,61.3,96.7,61.3z"/>
		<path d="M8,2v98h40L77,125.5V100h43V2H8z M68.8,75.8c-2.5,2.4-5.1,3.6-7.9,3.6c-1.6,0-3-0.5-4.3-1.5c-1.3-1-1.9-2.5-1.9-4.5
			c0-0.7,0.2-1.8,0.5-3.3c0.2-0.9,0.5-2,0.9-3.5l5.3-19.5c0.1-0.2,0.1-0.5,0.1-0.7c0-0.2,0.1-0.4,0.1-0.6c0-1.2-0.4-1.9-1.1-2.2
			c-0.7-0.3-2.1-0.5-4-0.5v-2.3c1.6-0.1,4-0.3,7.1-0.7c3.1-0.4,5.3-0.7,6.6-0.9l3.7-0.7l-6.7,24.7c-0.6,2.1-0.9,3.6-1.1,4.4
			c-0.5,2.1-0.8,3.4-0.8,4.1c0,0.6,0.1,1,0.4,1.2c0.3,0.2,0.6,0.3,0.9,0.3c0.9,0,2-0.7,3.3-2.2c1.3-1.5,2.4-3.1,3.4-4.7l1.9,1.2
			C72.5,71.6,70.3,74.4,68.8,75.8z M75.7,29.1c-1.1,1.1-2.5,1.7-4.1,1.7c-1.6,0-3-0.6-4.1-1.7c-1.1-1.1-1.7-2.5-1.7-4.1
			s0.6-3,1.7-4.1c1.1-1.1,2.5-1.7,4.1-1.7c1.6,0,3,0.6,4.1,1.7c1.1,1.1,1.7,2.5,1.7,4.1S76.8,28,75.7,29.1z M106.4,24.3l3.3,11.8
			l-10.2-6.8L89.4,36l3.3-11.8l-9.6-7.6l12.2-0.5l4.2-11.4l4.2,11.4l12.2,0.5L106.4,24.3z"/>
	</symbol>
	<!-- global_unread* -->
	<symbol id="callout-global_unread" width="100%" viewBox="0 0 128 128">
		<path d="M8,2v98h40L77,125.5V100h43V2H8z M68.8,75.8c-2.5,2.4-5.1,3.6-7.9,3.6c-1.6,0-3-0.5-4.3-1.5c-1.3-1-1.9-2.5-1.9-4.5
			c0-0.7,0.2-1.8,0.5-3.3c0.2-0.9,0.5-2,0.9-3.5l5.3-19.5c0.1-0.2,0.1-0.5,0.1-0.7c0-0.2,0.1-0.4,0.1-0.6c0-1.2-0.4-1.9-1.1-2.2
			c-0.7-0.3-2.1-0.5-4-0.5v-2.3c1.6-0.1,4-0.3,7.1-0.7c3.1-0.4,5.3-0.7,6.6-0.9l3.7-0.7l-6.7,24.7c-0.6,2.1-0.9,3.6-1.1,4.4
			c-0.5,2.1-0.8,3.4-0.8,4.1c0,0.6,0.1,1,0.4,1.2c0.3,0.2,0.6,0.3,0.9,0.3c0.9,0,2-0.7,3.3-2.2c1.3-1.5,2.4-3.1,3.4-4.7l1.9,1.2
			C72.5,71.6,70.3,74.4,68.8,75.8z M75.7,29.1c-1.1,1.1-2.5,1.7-4.1,1.7c-1.6,0-3-0.6-4.1-1.7c-1.1-1.1-1.7-2.5-1.7-4.1
			s0.6-3,1.7-4.1c1.1-1.1,2.5-1.7,4.1-1.7c1.6,0,3,0.6,4.1,1.7c1.1,1.1,1.7,2.5,1.7,4.1S76.8,28,75.7,29.1z"/>
	</symbol>
	<symbol id="callout-global_unread_locked" width="100%" viewBox="0 0 128 128">
		<g>
			<path d="M8,2v98h40L77,125.5V100h43V2H8z M68.8,75.8c-2.5,2.4-5.1,3.6-7.9,3.6c-1.6,0-3-0.5-4.3-1.5c-1.3-1-1.9-2.5-1.9-4.5
				c0-0.7,0.2-1.8,0.5-3.3c0.2-0.9,0.5-2,0.9-3.5l5.3-19.5c0.1-0.2,0.1-0.5,0.1-0.7c0-0.2,0.1-0.4,0.1-0.6c0-1.2-0.4-1.9-1.1-2.2
				c-0.7-0.3-2.1-0.5-4-0.5v-2.3c1.6-0.1,4-0.3,7.1-0.7c3.1-0.4,5.3-0.7,6.6-0.9l3.7-0.7l-6.7,24.7c-0.6,2.1-0.9,3.6-1.1,4.4
				c-0.5,2.1-0.8,3.4-0.8,4.1c0,0.6,0.1,1,0.4,1.2c0.3,0.2,0.6,0.3,0.9,0.3c0.9,0,2-0.7,3.3-2.2c1.3-1.5,2.4-3.1,3.4-4.7l1.9,1.2
				C72.5,71.6,70.3,74.4,68.8,75.8z M75.7,29.1c-1.1,1.1-2.5,1.7-4.1,1.7c-1.6,0-3-0.6-4.1-1.7c-1.1-1.1-1.7-2.5-1.7-4.1
				s0.6-3,1.7-4.1c1.1-1.1,2.5-1.7,4.1-1.7c1.6,0,3,0.6,4.1,1.7c1.1,1.1,1.7,2.5,1.7,4.1S76.8,28,75.7,29.1z M112,92.3H81.4V69H83
				c0-7.5,6.2-13.7,13.7-13.7s13.7,6.1,13.7,13.7h1.6V92.3z"/>
		</g>
		<g>
			<path d="M96.7,80c2.1,0,3.9-1.7,3.9-3.9c0-2.1-1.7-3.9-3.9-3.9c-2.1,0-3.9,1.7-3.9,3.9C92.8,78.2,94.6,80,96.7,80z"/>
			<polygon points="98.4,80 95,80 92.4,90.3 101,90.3"/>
		</g>
		<path d="M96.7,61.3c-4.2,0-7.7,3.4-7.7,7.7h15.4C104.4,64.8,101,61.3,96.7,61.3z"/>
	</symbol>
	<symbol id="callout-global_unread_locked_mine" width="100%" viewBox="0 0 128 128">
		<g>
			<path d="M96.7,80c2.1,0,3.9-1.7,3.9-3.9c0-2.1-1.7-3.9-3.9-3.9c-2.1,0-3.9,1.7-3.9,3.9C92.8,78.2,94.6,80,96.7,80z"/>
			<polygon points="98.4,80 95,80 92.4,90.3 101,90.3"/>
		</g>
		<path d="M96.7,61.3c-4.2,0-7.7,3.4-7.7,7.7h15.4C104.4,64.8,101,61.3,96.7,61.3z"/>
		<path d="M8,2v98h40L77,125.5V100h43V2H8z M68.8,75.8c-2.5,2.4-5.1,3.6-7.9,3.6c-1.6,0-3-0.5-4.3-1.5c-1.3-1-1.9-2.5-1.9-4.5
			c0-0.7,0.2-1.8,0.5-3.3c0.2-0.9,0.5-2,0.9-3.5l5.3-19.5c0.1-0.2,0.1-0.5,0.1-0.7c0-0.2,0.1-0.4,0.1-0.6c0-1.2-0.4-1.9-1.1-2.2
			c-0.7-0.3-2.1-0.5-4-0.5v-2.3c1.6-0.1,4-0.3,7.1-0.7c3.1-0.4,5.3-0.7,6.6-0.9l3.7-0.7l-6.7,24.7c-0.6,2.1-0.9,3.6-1.1,4.4
			c-0.5,2.1-0.8,3.4-0.8,4.1c0,0.6,0.1,1,0.4,1.2c0.3,0.2,0.6,0.3,0.9,0.3c0.9,0,2-0.7,3.3-2.2c1.3-1.5,2.4-3.1,3.4-4.7l1.9,1.2
			C72.5,71.6,70.3,74.4,68.8,75.8z M75.7,29.1c-1.1,1.1-2.5,1.7-4.1,1.7c-1.6,0-3-0.6-4.1-1.7c-1.1-1.1-1.7-2.5-1.7-4.1
			s0.6-3,1.7-4.1c1.1-1.1,2.5-1.7,4.1-1.7c1.6,0,3,0.6,4.1,1.7c1.1,1.1,1.7,2.5,1.7,4.1S76.8,28,75.7,29.1z M112,92.3H81.4V69H83
			c0-7.5,6.2-13.7,13.7-13.7s13.7,6.1,13.7,13.7h1.6V92.3z M106.4,24.3l3.3,11.8l-10.2-6.8L89.4,36l3.3-11.8l-9.6-7.6l12.2-0.5
			l4.2-11.4l4.2,11.4l12.2,0.5L106.4,24.3z"/>
	</symbol>
	<symbol id="callout-global_unread_mine" width="100%" viewBox="0 0 128 128">
		<path d="M96.7,61.3c-4.2,0-7.7,3.4-7.7,7.7h15.4C104.4,64.8,101,61.3,96.7,61.3z"/>
		<path d="M8,2v98h40L77,125.5V100h43V2H8z M68.8,75.8c-2.5,2.4-5.1,3.6-7.9,3.6c-1.6,0-3-0.5-4.3-1.5c-1.3-1-1.9-2.5-1.9-4.5
			c0-0.7,0.2-1.8,0.5-3.3c0.2-0.9,0.5-2,0.9-3.5l5.3-19.5c0.1-0.2,0.1-0.5,0.1-0.7c0-0.2,0.1-0.4,0.1-0.6c0-1.2-0.4-1.9-1.1-2.2
			c-0.7-0.3-2.1-0.5-4-0.5v-2.3c1.6-0.1,4-0.3,7.1-0.7c3.1-0.4,5.3-0.7,6.6-0.9l3.7-0.7l-6.7,24.7c-0.6,2.1-0.9,3.6-1.1,4.4
			c-0.5,2.1-0.8,3.4-0.8,4.1c0,0.6,0.1,1,0.4,1.2c0.3,0.2,0.6,0.3,0.9,0.3c0.9,0,2-0.7,3.3-2.2c1.3-1.5,2.4-3.1,3.4-4.7l1.9,1.2
			C72.5,71.6,70.3,74.4,68.8,75.8z M75.7,29.1c-1.1,1.1-2.5,1.7-4.1,1.7c-1.6,0-3-0.6-4.1-1.7c-1.1-1.1-1.7-2.5-1.7-4.1
			s0.6-3,1.7-4.1c1.1-1.1,2.5-1.7,4.1-1.7c1.6,0,3,0.6,4.1,1.7c1.1,1.1,1.7,2.5,1.7,4.1S76.8,28,75.7,29.1z M106.4,24.3l3.3,11.8
			l-10.2-6.8L89.4,36l3.3-11.8l-9.6-7.6l12.2-0.5l4.2-11.4l4.2,11.4l12.2,0.5L106.4,24.3z"/>
	</symbol>
	<!-- announce_read* -->
	<symbol id="callout-announce_read" width="100%" viewBox="0 0 128 128">
		<path d="M8,2v98h40L77,125.5V100h43V2H8z M68.8,75.8c-2.5,2.4-5.1,3.6-7.9,3.6c-1.6,0-3-0.5-4.3-1.5c-1.3-1-1.9-2.5-1.9-4.5
			c0-0.7,0.2-1.8,0.5-3.3c0.2-0.9,0.5-2,0.9-3.5l5.3-19.5c0.1-0.2,0.1-0.5,0.1-0.7c0-0.2,0.1-0.4,0.1-0.6c0-1.2-0.4-1.9-1.1-2.2
			c-0.7-0.3-2.1-0.5-4-0.5v-2.3c1.6-0.1,4-0.3,7.1-0.7c3.1-0.4,5.3-0.7,6.6-0.9l3.7-0.7l-6.7,24.7c-0.6,2.1-0.9,3.6-1.1,4.4
			c-0.5,2.1-0.8,3.4-0.8,4.1c0,0.6,0.1,1,0.4,1.2c0.3,0.2,0.6,0.3,0.9,0.3c0.9,0,2-0.7,3.3-2.2c1.3-1.5,2.4-3.1,3.4-4.7l1.9,1.2
			C72.5,71.6,70.3,74.4,68.8,75.8z M75.7,29.1c-1.1,1.1-2.5,1.7-4.1,1.7c-1.6,0-3-0.6-4.1-1.7c-1.1-1.1-1.7-2.5-1.7-4.1
			s0.6-3,1.7-4.1c1.1-1.1,2.5-1.7,4.1-1.7c1.6,0,3,0.6,4.1,1.7c1.1,1.1,1.7,2.5,1.7,4.1S76.8,28,75.7,29.1z"/>
	</symbol>
	<symbol id="callout-announce_read_locked" width="100%" viewBox="0 0 128 128">
		<g>
			<path d="M8,2v98h40L77,125.5V100h43V2H8z M68.8,75.8c-2.5,2.4-5.1,3.6-7.9,3.6c-1.6,0-3-0.5-4.3-1.5c-1.3-1-1.9-2.5-1.9-4.5
				c0-0.7,0.2-1.8,0.5-3.3c0.2-0.9,0.5-2,0.9-3.5l5.3-19.5c0.1-0.2,0.1-0.5,0.1-0.7c0-0.2,0.1-0.4,0.1-0.6c0-1.2-0.4-1.9-1.1-2.2
				c-0.7-0.3-2.1-0.5-4-0.5v-2.3c1.6-0.1,4-0.3,7.1-0.7c3.1-0.4,5.3-0.7,6.6-0.9l3.7-0.7l-6.7,24.7c-0.6,2.1-0.9,3.6-1.1,4.4
				c-0.5,2.1-0.8,3.4-0.8,4.1c0,0.6,0.1,1,0.4,1.2c0.3,0.2,0.6,0.3,0.9,0.3c0.9,0,2-0.7,3.3-2.2c1.3-1.5,2.4-3.1,3.4-4.7l1.9,1.2
				C72.5,71.6,70.3,74.4,68.8,75.8z M75.7,29.1c-1.1,1.1-2.5,1.7-4.1,1.7c-1.6,0-3-0.6-4.1-1.7c-1.1-1.1-1.7-2.5-1.7-4.1
				s0.6-3,1.7-4.1c1.1-1.1,2.5-1.7,4.1-1.7c1.6,0,3,0.6,4.1,1.7c1.1,1.1,1.7,2.5,1.7,4.1S76.8,28,75.7,29.1z M112,92.3H81.4V69H83
				c0-7.5,6.2-13.7,13.7-13.7s13.7,6.1,13.7,13.7h1.6V92.3z"/>
		</g>
		<g>
			<path d="M96.7,80c2.1,0,3.9-1.7,3.9-3.9c0-2.1-1.7-3.9-3.9-3.9c-2.1,0-3.9,1.7-3.9,3.9C92.8,78.2,94.6,80,96.7,80z"/>
			<polygon points="98.4,80 95,80 92.4,90.3 101,90.3"/>
		</g>
		<path d="M96.7,61.3c-4.2,0-7.7,3.4-7.7,7.7h15.4C104.4,64.8,101,61.3,96.7,61.3z"/>
	</symbol>
	<symbol id="callout-announce_read_locked_mine" width="100%" viewBox="0 0 128 128">
		<g>
			<path d="M96.7,80c2.1,0,3.9-1.7,3.9-3.9c0-2.1-1.7-3.9-3.9-3.9c-2.1,0-3.9,1.7-3.9,3.9C92.8,78.2,94.6,80,96.7,80z"/>
			<polygon points="98.4,80 95,80 92.4,90.3 101,90.3"/>
		</g>
		<path d="M96.7,61.3c-4.2,0-7.7,3.4-7.7,7.7h15.4C104.4,64.8,101,61.3,96.7,61.3z"/>
		<path d="M8,2v98h40L77,125.5V100h43V2H8z M68.8,75.8c-2.5,2.4-5.1,3.6-7.9,3.6c-1.6,0-3-0.5-4.3-1.5c-1.3-1-1.9-2.5-1.9-4.5
			c0-0.7,0.2-1.8,0.5-3.3c0.2-0.9,0.5-2,0.9-3.5l5.3-19.5c0.1-0.2,0.1-0.5,0.1-0.7c0-0.2,0.1-0.4,0.1-0.6c0-1.2-0.4-1.9-1.1-2.2
			c-0.7-0.3-2.1-0.5-4-0.5v-2.3c1.6-0.1,4-0.3,7.1-0.7c3.1-0.4,5.3-0.7,6.6-0.9l3.7-0.7l-6.7,24.7c-0.6,2.1-0.9,3.6-1.1,4.4
			c-0.5,2.1-0.8,3.4-0.8,4.1c0,0.6,0.1,1,0.4,1.2c0.3,0.2,0.6,0.3,0.9,0.3c0.9,0,2-0.7,3.3-2.2c1.3-1.5,2.4-3.1,3.4-4.7l1.9,1.2
			C72.5,71.6,70.3,74.4,68.8,75.8z M75.7,29.1c-1.1,1.1-2.5,1.7-4.1,1.7c-1.6,0-3-0.6-4.1-1.7c-1.1-1.1-1.7-2.5-1.7-4.1
			s0.6-3,1.7-4.1c1.1-1.1,2.5-1.7,4.1-1.7c1.6,0,3,0.6,4.1,1.7c1.1,1.1,1.7,2.5,1.7,4.1S76.8,28,75.7,29.1z M112,92.3H81.4V69H83
			c0-7.5,6.2-13.7,13.7-13.7s13.7,6.1,13.7,13.7h1.6V92.3z M106.4,24.3l3.3,11.8l-10.2-6.8L89.4,36l3.3-11.8l-9.6-7.6l12.2-0.5
			l4.2-11.4l4.2,11.4l12.2,0.5L106.4,24.3z"/>
	</symbol>
	<symbol id="callout-announce_read_mine" width="100%" viewBox="0 0 128 128">
		<path d="M96.7,61.3c-4.2,0-7.7,3.4-7.7,7.7h15.4C104.4,64.8,101,61.3,96.7,61.3z"/>
		<path d="M8,2v98h40L77,125.5V100h43V2H8z M68.8,75.8c-2.5,2.4-5.1,3.6-7.9,3.6c-1.6,0-3-0.5-4.3-1.5c-1.3-1-1.9-2.5-1.9-4.5
			c0-0.7,0.2-1.8,0.5-3.3c0.2-0.9,0.5-2,0.9-3.5l5.3-19.5c0.1-0.2,0.1-0.5,0.1-0.7c0-0.2,0.1-0.4,0.1-0.6c0-1.2-0.4-1.9-1.1-2.2
			c-0.7-0.3-2.1-0.5-4-0.5v-2.3c1.6-0.1,4-0.3,7.1-0.7c3.1-0.4,5.3-0.7,6.6-0.9l3.7-0.7l-6.7,24.7c-0.6,2.1-0.9,3.6-1.1,4.4
			c-0.5,2.1-0.8,3.4-0.8,4.1c0,0.6,0.1,1,0.4,1.2c0.3,0.2,0.6,0.3,0.9,0.3c0.9,0,2-0.7,3.3-2.2c1.3-1.5,2.4-3.1,3.4-4.7l1.9,1.2
			C72.5,71.6,70.3,74.4,68.8,75.8z M75.7,29.1c-1.1,1.1-2.5,1.7-4.1,1.7c-1.6,0-3-0.6-4.1-1.7c-1.1-1.1-1.7-2.5-1.7-4.1
			s0.6-3,1.7-4.1c1.1-1.1,2.5-1.7,4.1-1.7c1.6,0,3,0.6,4.1,1.7c1.1,1.1,1.7,2.5,1.7,4.1S76.8,28,75.7,29.1z M106.4,24.3l3.3,11.8
			l-10.2-6.8L89.4,36l3.3-11.8l-9.6-7.6l12.2-0.5l4.2-11.4l4.2,11.4l12.2,0.5L106.4,24.3z"/>
	</symbol>
	<!-- announce_unread* -->
	<symbol id="callout-announce_unread" width="100%" viewBox="0 0 128 128">
		<path d="M8,2v98h40L77,125.5V100h43V2H8z M68.8,75.8c-2.5,2.4-5.1,3.6-7.9,3.6c-1.6,0-3-0.5-4.3-1.5c-1.3-1-1.9-2.5-1.9-4.5
			c0-0.7,0.2-1.8,0.5-3.3c0.2-0.9,0.5-2,0.9-3.5l5.3-19.5c0.1-0.2,0.1-0.5,0.1-0.7c0-0.2,0.1-0.4,0.1-0.6c0-1.2-0.4-1.9-1.1-2.2
			c-0.7-0.3-2.1-0.5-4-0.5v-2.3c1.6-0.1,4-0.3,7.1-0.7c3.1-0.4,5.3-0.7,6.6-0.9l3.7-0.7l-6.7,24.7c-0.6,2.1-0.9,3.6-1.1,4.4
			c-0.5,2.1-0.8,3.4-0.8,4.1c0,0.6,0.1,1,0.4,1.2c0.3,0.2,0.6,0.3,0.9,0.3c0.9,0,2-0.7,3.3-2.2c1.3-1.5,2.4-3.1,3.4-4.7l1.9,1.2
			C72.5,71.6,70.3,74.4,68.8,75.8z M75.7,29.1c-1.1,1.1-2.5,1.7-4.1,1.7c-1.6,0-3-0.6-4.1-1.7c-1.1-1.1-1.7-2.5-1.7-4.1
			s0.6-3,1.7-4.1c1.1-1.1,2.5-1.7,4.1-1.7c1.6,0,3,0.6,4.1,1.7c1.1,1.1,1.7,2.5,1.7,4.1S76.8,28,75.7,29.1z"/>
	</symbol>
	<symbol id="callout-announce_unread_locked" width="100%" viewBox="0 0 128 128">
		<g>
			<path d="M8,2v98h40L77,125.5V100h43V2H8z M68.8,75.8c-2.5,2.4-5.1,3.6-7.9,3.6c-1.6,0-3-0.5-4.3-1.5c-1.3-1-1.9-2.5-1.9-4.5
				c0-0.7,0.2-1.8,0.5-3.3c0.2-0.9,0.5-2,0.9-3.5l5.3-19.5c0.1-0.2,0.1-0.5,0.1-0.7c0-0.2,0.1-0.4,0.1-0.6c0-1.2-0.4-1.9-1.1-2.2
				c-0.7-0.3-2.1-0.5-4-0.5v-2.3c1.6-0.1,4-0.3,7.1-0.7c3.1-0.4,5.3-0.7,6.6-0.9l3.7-0.7l-6.7,24.7c-0.6,2.1-0.9,3.6-1.1,4.4
				c-0.5,2.1-0.8,3.4-0.8,4.1c0,0.6,0.1,1,0.4,1.2c0.3,0.2,0.6,0.3,0.9,0.3c0.9,0,2-0.7,3.3-2.2c1.3-1.5,2.4-3.1,3.4-4.7l1.9,1.2
				C72.5,71.6,70.3,74.4,68.8,75.8z M75.7,29.1c-1.1,1.1-2.5,1.7-4.1,1.7c-1.6,0-3-0.6-4.1-1.7c-1.1-1.1-1.7-2.5-1.7-4.1
				s0.6-3,1.7-4.1c1.1-1.1,2.5-1.7,4.1-1.7c1.6,0,3,0.6,4.1,1.7c1.1,1.1,1.7,2.5,1.7,4.1S76.8,28,75.7,29.1z M112,92.3H81.4V69H83
				c0-7.5,6.2-13.7,13.7-13.7s13.7,6.1,13.7,13.7h1.6V92.3z"/>
		</g>
		<g>
			<path d="M96.7,80c2.1,0,3.9-1.7,3.9-3.9c0-2.1-1.7-3.9-3.9-3.9c-2.1,0-3.9,1.7-3.9,3.9C92.8,78.2,94.6,80,96.7,80z"/>
			<polygon points="98.4,80 95,80 92.4,90.3 101,90.3"/>
		</g>
		<path d="M96.7,61.3c-4.2,0-7.7,3.4-7.7,7.7h15.4C104.4,64.8,101,61.3,96.7,61.3z"/>
	</symbol>
	<symbol id="callout-announce_unread_locked_mine" width="100%" viewBox="0 0 128 128">
		<g>
			<path d="M96.7,80c2.1,0,3.9-1.7,3.9-3.9c0-2.1-1.7-3.9-3.9-3.9c-2.1,0-3.9,1.7-3.9,3.9C92.8,78.2,94.6,80,96.7,80z"/>
			<polygon points="98.4,80 95,80 92.4,90.3 101,90.3"/>
		</g>
		<path d="M96.7,61.3c-4.2,0-7.7,3.4-7.7,7.7h15.4C104.4,64.8,101,61.3,96.7,61.3z"/>
		<path d="M8,2v98h40L77,125.5V100h43V2H8z M68.8,75.8c-2.5,2.4-5.1,3.6-7.9,3.6c-1.6,0-3-0.5-4.3-1.5c-1.3-1-1.9-2.5-1.9-4.5
			c0-0.7,0.2-1.8,0.5-3.3c0.2-0.9,0.5-2,0.9-3.5l5.3-19.5c0.1-0.2,0.1-0.5,0.1-0.7c0-0.2,0.1-0.4,0.1-0.6c0-1.2-0.4-1.9-1.1-2.2
			c-0.7-0.3-2.1-0.5-4-0.5v-2.3c1.6-0.1,4-0.3,7.1-0.7c3.1-0.4,5.3-0.7,6.6-0.9l3.7-0.7l-6.7,24.7c-0.6,2.1-0.9,3.6-1.1,4.4
			c-0.5,2.1-0.8,3.4-0.8,4.1c0,0.6,0.1,1,0.4,1.2c0.3,0.2,0.6,0.3,0.9,0.3c0.9,0,2-0.7,3.3-2.2c1.3-1.5,2.4-3.1,3.4-4.7l1.9,1.2
			C72.5,71.6,70.3,74.4,68.8,75.8z M75.7,29.1c-1.1,1.1-2.5,1.7-4.1,1.7c-1.6,0-3-0.6-4.1-1.7c-1.1-1.1-1.7-2.5-1.7-4.1
			s0.6-3,1.7-4.1c1.1-1.1,2.5-1.7,4.1-1.7c1.6,0,3,0.6,4.1,1.7c1.1,1.1,1.7,2.5,1.7,4.1S76.8,28,75.7,29.1z M112,92.3H81.4V69H83
			c0-7.5,6.2-13.7,13.7-13.7s13.7,6.1,13.7,13.7h1.6V92.3z M106.4,24.3l3.3,11.8l-10.2-6.8L89.4,36l3.3-11.8l-9.6-7.6l12.2-0.5
			l4.2-11.4l4.2,11.4l12.2,0.5L106.4,24.3z"/>
	</symbol>
	<symbol id="callout-announce_unread_mine" width="100%" viewBox="0 0 128 128">
		<path d="M96.7,61.3c-4.2,0-7.7,3.4-7.7,7.7h15.4C104.4,64.8,101,61.3,96.7,61.3z"/>
		<path d="M8,2v98h40L77,125.5V100h43V2H8z M68.8,75.8c-2.5,2.4-5.1,3.6-7.9,3.6c-1.6,0-3-0.5-4.3-1.5c-1.3-1-1.9-2.5-1.9-4.5
			c0-0.7,0.2-1.8,0.5-3.3c0.2-0.9,0.5-2,0.9-3.5l5.3-19.5c0.1-0.2,0.1-0.5,0.1-0.7c0-0.2,0.1-0.4,0.1-0.6c0-1.2-0.4-1.9-1.1-2.2
			c-0.7-0.3-2.1-0.5-4-0.5v-2.3c1.6-0.1,4-0.3,7.1-0.7c3.1-0.4,5.3-0.7,6.6-0.9l3.7-0.7l-6.7,24.7c-0.6,2.1-0.9,3.6-1.1,4.4
			c-0.5,2.1-0.8,3.4-0.8,4.1c0,0.6,0.1,1,0.4,1.2c0.3,0.2,0.6,0.3,0.9,0.3c0.9,0,2-0.7,3.3-2.2c1.3-1.5,2.4-3.1,3.4-4.7l1.9,1.2
			C72.5,71.6,70.3,74.4,68.8,75.8z M75.7,29.1c-1.1,1.1-2.5,1.7-4.1,1.7c-1.6,0-3-0.6-4.1-1.7c-1.1-1.1-1.7-2.5-1.7-4.1
			s0.6-3,1.7-4.1c1.1-1.1,2.5-1.7,4.1-1.7c1.6,0,3,0.6,4.1,1.7c1.1,1.1,1.7,2.5,1.7,4.1S76.8,28,75.7,29.1z M106.4,24.3l3.3,11.8
			l-10.2-6.8L89.4,36l3.3-11.8l-9.6-7.6l12.2-0.5l4.2-11.4l4.2,11.4l12.2,0.5L106.4,24.3z"/>
	</symbol>
</defs>
</svg>