<?xml version="1.0" encoding="utf-8"?>
<!-- Generator: Adobe Illustrator 16.0.0, SVG Export Plug-In . SVG Version: 6.00 Build 0)  -->
<!DOCTYPE svg PUBLIC "-//W3C//DTD SVG 1.1//EN" "http://www.w3.org/Graphics/SVG/1.1/DTD/svg11.dtd">
<svg version="1.1" id="user" xmlns="http://www.w3.org/2000/svg" xmlns:xlink="http://www.w3.org/1999/xlink" x="0px" y="0px"
	 width="187px" height="187.031px" viewBox="0 -0.031 187 187.031" enable-background="new 0 -0.031 187 187.031"
	 xml:space="preserve">
<path fill="none" d="M93.5,14.61c-21.785,0-39.445,17.66-39.445,39.445C54.055,75.84,71.715,93.5,93.5,93.5
	c21.774-0.025,39.42-17.67,39.445-39.445C132.945,32.27,115.285,14.61,93.5,14.61z"/>
<g>
	<path fill="#424242" d="M159.615,120.885c-9.996-10.033-22.147-17.654-35.531-22.285c24.615-16.891,30.878-50.539,13.986-75.154
		C121.18-1.171,87.532-7.433,62.916,9.458C38.3,26.35,32.038,59.997,48.929,84.613c3.762,5.483,8.504,10.225,13.987,13.986
		C25.271,111.678,0.026,147.148,0,187h14.609c0.155-43.57,35.601-78.766,79.171-78.61c43.351,0.154,78.457,35.259,78.611,78.61H187
		C187.068,162.189,177.207,138.382,159.615,120.885z M93.5,93.5c-21.785,0-39.445-17.66-39.445-39.445
		c0-21.785,17.66-39.445,39.445-39.445c21.785,0,39.445,17.66,39.445,39.445C132.92,75.83,115.274,93.475,93.5,93.5z"/>
</g>
</svg>
